<?xml version="1.0" encoding="utf-8"?>
<!-- Generator: Adobe Illustrator 22.1.0, SVG Export Plug-In . SVG Version: 6.00 Build 0)  -->
<svg version="1.1" id="Layer_1" xmlns="http://www.w3.org/2000/svg" xmlns:xlink="http://www.w3.org/1999/xlink" x="0px" y="0px"
	 viewBox="0 0 208 326" style="enable-background:new 0 0 208 326;" xml:space="preserve">
<style type="text/css">
	.st0{fill:none;}
	.st1{fill:#EFC71B;}
	.st2{fill:#A469B2;}
	.st3{fill:#FFB3AF;}
	.st4{display:none;}
	.st5{display:inline;}
	.st6{fill:none;stroke:#000000;stroke-width:0.5;stroke-miterlimit:10;}
	.st7{fill:url(#SVGID_1_);stroke:#000000;stroke-width:0.5;stroke-miterlimit:10;}
	.st8{fill:#824737;}
	.st9{fill:#824737;stroke:#000000;stroke-width:0.5;stroke-miterlimit:10;}
	.st10{fill:url(#SVGID_2_);stroke:#000000;stroke-width:0.5;stroke-miterlimit:10;}
	.st11{fill:#C1272D;stroke:#000000;stroke-width:0.5;stroke-miterlimit:10;}
	.st12{fill:#998675;stroke:#000000;stroke-width:0.5;stroke-miterlimit:10;}
	.st13{fill:#534741;stroke:#000000;stroke-width:0.5;stroke-miterlimit:10;}
	.st14{fill:#754C24;stroke:#000000;stroke-width:0.5;stroke-miterlimit:10;}
	.st15{fill:#4C220F;}
	.st16{fill:#993300;}
	.st17{fill:#7C3C1C;}
	.st18{fill:#B2B0AF;}
	.st19{fill:url(#SVGID_3_);stroke:#4C220F;stroke-width:2;stroke-miterlimit:10;}
	.st20{fill:url(#SVGID_4_);stroke:#4C220F;stroke-width:2;stroke-miterlimit:10;}
	.st21{fill:url(#SVGID_5_);stroke:#4C220F;stroke-width:2;stroke-miterlimit:10;}
	.st22{fill:url(#SVGID_6_);stroke:#4C220F;stroke-width:2;stroke-miterlimit:10;}
	.st23{fill:url(#SVGID_7_);stroke:#4C220F;stroke-width:2;stroke-miterlimit:10;}
	.st24{fill:url(#SVGID_8_);stroke:#4C220F;stroke-width:2;stroke-miterlimit:10;}
	.st25{fill:url(#SVGID_9_);stroke:#4C220F;stroke-width:2;stroke-miterlimit:10;}
	.st26{fill:url(#SVGID_10_);stroke:#4C220F;stroke-width:2;stroke-miterlimit:10;}
	.st27{fill:url(#SVGID_11_);stroke:#4C220F;stroke-width:2;stroke-miterlimit:10;}
	.st28{fill:none;stroke:#4C220F;stroke-width:2;stroke-miterlimit:10;}
	.st29{fill:none;stroke:#4C220F;stroke-width:5;stroke-miterlimit:10;}
	.st30{fill:none;stroke:#4C220F;stroke-width:7;stroke-miterlimit:10;}
	.st31{fill:#EFC71B;stroke:#000000;stroke-width:0.75;stroke-miterlimit:10;}
	.st32{fill:#F21919;}
	.st33{fill:url(#New_Pattern_Swatch_6);}
	.st34{fill:none;stroke:#000000;stroke-miterlimit:10;}
	.st35{fill:#EFC71B;stroke:#000000;stroke-miterlimit:10;}
	.st36{fill:#B9005C;stroke:#000000;stroke-miterlimit:10;}
	.st37{fill:#FF60D4;}
	.st38{fill:url(#New_Pattern_Swatch_3);}
	.st39{fill:#3D1B8E;}
	.st40{fill:url(#New_Pattern_Swatch_5);}
</style>
<pattern  x="348.1" y="217.6" width="48.9" height="36.3" patternUnits="userSpaceOnUse" id="New_Pattern_Swatch_3" viewBox="0 -36.3 48.9 36.3" style="overflow:visible;">
	<g>
		<rect y="-36.3" class="st0" width="48.9" height="36.3"/>
		<polygon class="st1" points="12.1,-24.9 8,-26.5 4.4,-24 4.6,-28.4 1.2,-31 5.4,-32.2 6.8,-36.3 9.2,-32.6 13.6,-32.5 10.9,-29.1 
					"/>
		<polygon class="st1" points="26.2,-24.3 23,-23.2 22,-19.9 20,-22.7 16.6,-22.5 18.6,-25.3 17.4,-28.5 20.7,-27.4 23.3,-29.5 
			23.4,-26.1 		"/>
		<polygon class="st1" points="41.6,-24.9 39.5,-25.5 37.8,-24.1 37.7,-26.3 35.8,-27.5 37.9,-28.3 38.4,-30.4 39.8,-28.7 42,-28.8 
			40.8,-27 		"/>
		<polygon class="st1" points="31.1,-16.8 30.6,-17.8 29.5,-18 30.3,-18.8 30.1,-19.9 31.1,-19.4 32.1,-19.9 31.9,-18.8 32.7,-18 
			31.6,-17.8 		"/>
		<polygon class="st1" points="16.6,-13.1 11.1,-10.8 9.9,-5 6,-9.5 0,-8.9 3.1,-14 0.7,-19.5 6.5,-18.1 10.9,-22.1 11.4,-16.1 		
			"/>
		<polygon class="st1" points="39.1,-11 36.5,-11.3 34.8,-9.3 34.3,-11.9 31.9,-12.9 34.1,-14.2 34.3,-16.8 36.3,-15 38.8,-15.6 
			37.8,-13.3 		"/>
		<polygon class="st1" points="24.5,-5 24,-7.6 21.5,-8.7 23.9,-10 24.2,-12.7 26.2,-10.8 28.8,-11.3 27.6,-8.9 29,-6.6 26.3,-6.9 
					"/>
		<polygon class="st1" points="17.3,0 15.2,-1.2 13,-0.2 13.5,-2.5 11.9,-4.3 14.3,-4.5 15.4,-6.7 16.4,-4.5 18.8,-4 17,-2.4 		"/>
		<polygon class="st1" points="35.8,0 34.2,-1.5 32.1,-1 33,-2.9 31.9,-4.8 34,-4.5 35.4,-6.2 35.9,-4.1 37.9,-3.2 36,-2.1 		"/>
		<polygon class="st1" points="48.1,-15.8 45.7,-16.7 43.7,-15.2 43.8,-17.7 41.8,-19.2 44.2,-19.9 44.9,-22.3 46.4,-20.2 
			48.9,-20.2 47.3,-18.2 		"/>
		<polygon class="st1" points="48.1,-5 46.1,-4.9 45,-3.1 44.3,-5 42.3,-5.5 43.9,-6.8 43.8,-8.8 45.5,-7.7 47.3,-8.5 46.8,-6.5 		
			"/>
		<polygon class="st1" points="33.1,-29.5 30.9,-29.8 29.4,-28 28.9,-30.2 26.8,-31.1 28.8,-32.2 28.9,-34.5 30.6,-33 32.8,-33.5 
			31.9,-31.5 		"/>
	</g>
</pattern>
<pattern  x="348.1" y="217.6" width="60.8" height="52.3" patternUnits="userSpaceOnUse" id="New_Pattern_Swatch_5" viewBox="0 -52.3 60.8 52.3" style="overflow:visible;">
	<g>
		<rect x="0" y="-52.3" class="st0" width="60.8" height="52.3"/>
		<circle class="st2" cx="5.5" cy="-42" r="5.5"/>
		<circle class="st2" cx="29.2" cy="-48" r="2.2"/>
		<circle class="st2" cx="24.8" cy="-37.2" r="2.2"/>
		<circle class="st2" cx="36.4" cy="-40.7" r="1.3"/>
		<circle class="st2" cx="17.3" cy="-48.6" r="3.8"/>
		<circle class="st2" cx="48.8" cy="-45" r="3"/>
		<circle class="st2" cx="18.3" cy="-25.9" r="4.8"/>
		<circle class="st2" cx="48.2" cy="-23.3" r="5.8"/>
		<circle class="st2" cx="37.8" cy="-28.1" r="2.7"/>
		<circle class="st2" cx="55.7" cy="-32.1" r="5.1"/>
		<circle class="st2" cx="28.1" cy="-16.4" r="1.1"/>
		<circle class="st2" cx="3" cy="-24" r="3"/>
		<circle class="st2" cx="14.7" cy="-8.6" r="3.7"/>
		<circle class="st2" cx="33.5" cy="-4.3" r="4.3"/>
		<circle class="st2" cx="49.2" cy="-4.9" r="3.3"/>
		<polygon class="st2" points="21.1,-1.5 21.1,-1.5 21.1,-1.5 21.1,-1.5 		"/>
		<circle class="st2" cx="1.5" cy="-6.8" r="1.5"/>
		<circle class="st2" cx="9.1" cy="-0.8" r="0.8"/>
	</g>
</pattern>
<pattern  x="348.1" y="217.6" width="48.9" height="36.3" patternUnits="userSpaceOnUse" id="New_Pattern_Swatch_6" viewBox="0 -36.3 48.9 36.3" style="overflow:visible;">
	<g>
		<rect y="-36.3" class="st0" width="48.9" height="36.3"/>
		<polygon class="st3" points="12.1,-24.9 8,-26.5 4.4,-24 4.6,-28.4 1.2,-31 5.4,-32.2 6.8,-36.3 9.2,-32.6 13.6,-32.5 10.9,-29.1 
					"/>
		<polygon class="st3" points="26.2,-24.3 23,-23.2 22,-19.9 20,-22.7 16.6,-22.5 18.6,-25.3 17.4,-28.5 20.7,-27.4 23.3,-29.5 
			23.4,-26.1 		"/>
		<polygon class="st3" points="41.6,-24.9 39.5,-25.5 37.8,-24.1 37.7,-26.3 35.8,-27.5 37.9,-28.3 38.4,-30.4 39.8,-28.7 42,-28.8 
			40.8,-27 		"/>
		<polygon class="st3" points="31.1,-16.8 30.6,-17.8 29.5,-18 30.3,-18.8 30.1,-19.9 31.1,-19.4 32.1,-19.9 31.9,-18.8 32.7,-18 
			31.6,-17.8 		"/>
		<polygon class="st3" points="16.6,-13.1 11.1,-10.8 9.9,-5 6,-9.5 0,-8.9 3.1,-14 0.7,-19.5 6.5,-18.1 10.9,-22.1 11.4,-16.1 		
			"/>
		<polygon class="st3" points="39.1,-11 36.5,-11.3 34.8,-9.3 34.3,-11.9 31.9,-12.9 34.1,-14.2 34.3,-16.8 36.3,-15 38.8,-15.6 
			37.8,-13.3 		"/>
		<polygon class="st3" points="24.5,-5 24,-7.6 21.5,-8.7 23.9,-10 24.2,-12.7 26.2,-10.8 28.8,-11.3 27.6,-8.9 29,-6.6 26.3,-6.9 
					"/>
		<polygon class="st3" points="17.3,0 15.2,-1.2 13,-0.2 13.5,-2.5 11.9,-4.3 14.3,-4.5 15.4,-6.7 16.4,-4.5 18.8,-4 17,-2.4 		"/>
		<polygon class="st3" points="35.8,0 34.2,-1.5 32.1,-1 33,-2.9 31.9,-4.8 34,-4.5 35.4,-6.2 35.9,-4.1 37.9,-3.2 36,-2.1 		"/>
		<polygon class="st3" points="48.1,-15.8 45.7,-16.7 43.7,-15.2 43.8,-17.7 41.8,-19.2 44.2,-19.9 44.9,-22.3 46.4,-20.2 
			48.9,-20.2 47.3,-18.2 		"/>
		<polygon class="st3" points="48.1,-5 46.1,-4.9 45,-3.1 44.3,-5 42.3,-5.5 43.9,-6.8 43.8,-8.8 45.5,-7.7 47.3,-8.5 46.8,-6.5 		
			"/>
		<polygon class="st3" points="33.1,-29.5 30.9,-29.8 29.4,-28 28.9,-30.2 26.8,-31.1 28.8,-32.2 28.9,-34.5 30.6,-33 32.8,-33.5 
			31.9,-31.5 		"/>
	</g>
</pattern>
<g class="st4">
	<path class="st5" d="M387.2,174.1l-0.1-0.2h7.7l-9.5-14h4.5l-13.9-20.3l1.3,0.9l-0.4-2.4l1.7-1.7l-2.4-0.3l-1.1-2.2l-1.1,2.3
		l-2.4,0.4l1.7,1.8l-0.4,2.5l0.9-0.9l-13.8,20.1h4.5l-9.5,14h7.7l-0.1,0.2l-12.3,12.8h20.9v7h6v-7h22.4L387.2,174.1z M389.6,169.1
		c0.7,0,1.2,0.5,1.2,1.2c0,0.7-0.5,1.2-1.2,1.2c-0.7,0-1.2-0.5-1.2-1.2C388.4,169.7,388.9,169.1,389.6,169.1z M357.6,184.8
		c-0.7,0-1.2-0.5-1.2-1.2c0-0.7,0.5-1.2,1.2-1.2s1.2,0.5,1.2,1.2C358.8,184.3,358.3,184.8,357.6,184.8z M362.8,170.8
		c-0.6,0-1.2-0.5-1.2-1.2c0-0.6,0.5-1.2,1.2-1.2c0.6,0,1.2,0.5,1.2,1.2S363.4,170.8,362.8,170.8z M370.7,148.7
		c0.7,0,1.3,0.6,1.3,1.3s-0.6,1.3-1.3,1.3s-1.3-0.6-1.3-1.3S370,148.7,370.7,148.7z M370.2,183.1c-0.9,0-1.6-0.7-1.6-1.6
		s0.7-1.6,1.6-1.6c0.9,0,1.6,0.7,1.6,1.6S371.1,183.1,370.2,183.1z M371.7,161.1c-0.6,0-1-0.5-1-1c0-0.6,0.5-1,1-1s1,0.5,1,1
		C372.8,160.6,372.3,161.1,371.7,161.1z M373.3,140.1l0.3-2l-1.4-1.4l1.9-0.3l0.8-1.8l0.8,1.8l1.9,0.3l-1.4,1.4l0.3,2l-1.7-0.9
		L373.3,140.1z M376.5,165.9c-0.6,0-1-0.5-1-1c0-0.6,0.5-1,1-1c0.6,0,1,0.5,1,1C377.5,165.4,377.1,165.9,376.5,165.9z M377.4,148.7
		c-0.7,0-1.3-0.6-1.3-1.3c0-0.7,0.6-1.3,1.3-1.3s1.3,0.6,1.3,1.3C378.7,148.1,378.1,148.7,377.4,148.7z M381.5,177.7
		c-0.9,0-1.7-0.7-1.7-1.7c0-0.9,0.7-1.7,1.7-1.7s1.7,0.7,1.7,1.7C383.2,176.9,382.4,177.7,381.5,177.7z M383.2,157.3
		c-0.8,0-1.5-0.6-1.5-1.5s0.6-1.5,1.5-1.5s1.5,0.6,1.5,1.5C384.6,156.7,384,157.3,383.2,157.3z M388.4,183.8c-0.7,0-1.2-0.5-1.2-1.2
		c0-0.7,0.5-1.2,1.2-1.2c0.7,0,1.2,0.5,1.2,1.2C389.6,183.3,389.1,183.8,388.4,183.8z"/>
</g>
<g>
	<path d="M270.2-51.6c0.1-0.3,0.3-0.3,0.5,0l1.2,2.3c0.1,0.3,0.5,0.5,0.7,0.5l2.6,0.4c0.3,0,0.3,0.2,0.1,0.4l-1.9,1.8
		c-0.2,0.2-0.3,0.6-0.3,0.9l0.4,2.6c0,0.3-0.1,0.4-0.4,0.3l-2.3-1.2c-0.3-0.1-0.7-0.1-0.9,0l-2.3,1.2c-0.3,0.1-0.4,0-0.4-0.3
		l0.4-2.6c0-0.3-0.1-0.7-0.3-0.9l-1.9-1.8c-0.2-0.2-0.1-0.4,0.1-0.4l2.6-0.4c0.3,0,0.6-0.3,0.7-0.5L270.2-51.6z"/>
	<g>
		<path d="M283.4-5.8c-0.2-0.4-0.1-0.7,0.4-0.7h4.5c0.5,0,0.7-0.3,0.4-0.7l-8.9-15.2c-0.2-0.4,0-0.7,0.4-0.7h2.3
			c0.5,0,0.7-0.3,0.4-0.7l-5.7-9.6c-0.2-0.4-0.6-1.1-0.9-1.5l-3.4-5.8c-0.2-0.4-0.8-0.9-1.2-1.1l-0.7-0.3c-0.4-0.2-1.1-0.2-1.5,0
			l-0.9,0.5c-0.4,0.2-0.9,0.7-1.2,1.1l-3.4,5.7c-0.2,0.4-0.6,1.1-0.9,1.5l-5.7,9.6c-0.2,0.4-0.1,0.7,0.4,0.7h2.3
			c0.5,0,0.7,0.3,0.4,0.7l-8.9,15.2c-0.2,0.4,0,0.7,0.4,0.7h4.5c0.5,0,0.7,0.3,0.4,0.7l-9.1,15.2c-0.2,0.4-0.1,0.7,0.4,0.7h17.7
			c0.5,0,0.9,0.4,0.9,0.9v4.2c0,0.5,0.4,0.9,0.9,0.9h4.3c0.5,0,0.9-0.4,0.9-0.9v-4.2c0-0.5,0.4-0.9,0.9-0.9H292
			c0.5,0,0.7-0.3,0.4-0.7L283.4-5.8z M258,2.7c-1,0-1.9-0.8-1.9-1.9c0-1,0.8-1.9,1.9-1.9c1,0,1.9,0.8,1.9,1.9
			C259.9,1.8,259.1,2.7,258,2.7z M263.2-11.8c-1.3,0-2.4-1.1-2.4-2.4s1.1-2.4,2.4-2.4c1.3,0,2.4,1.1,2.4,2.4S264.5-11.8,263.2-11.8z
			 M266.6-29.5c0-1.2,1-2.3,2.3-2.3c1.3,0,2.3,1,2.3,2.3s-1,2.3-2.3,2.3C267.6-27.2,266.6-28.2,266.6-29.5z M269.5,2.2
			c-1.3,0-2.3-1-2.3-2.3s1-2.3,2.3-2.3c1.3,0,2.3,1,2.3,2.3S270.8,2.2,269.5,2.2z M273.9-17.2c0-1.2,1-2.3,2.3-2.3
			c1.3,0,2.3,1,2.3,2.3s-1,2.3-2.3,2.3C274.9-15,273.9-16,273.9-17.2z M279.2-2.8c-1,0-1.9-0.8-1.9-1.9s0.8-1.9,1.9-1.9
			s1.9,0.8,1.9,1.9S280.2-2.8,279.2-2.8z"/>
	</g>
</g>
<path class="st6" d="M387-43.7c0.1-0.3,0.3-0.3,0.5,0l1.2,2.3c0.1,0.3,0.5,0.5,0.7,0.5l2.6,0.4c0.3,0,0.3,0.2,0.1,0.4l-1.9,1.8
	c-0.2,0.2-0.3,0.6-0.3,0.9l0.4,2.6c0,0.3-0.1,0.4-0.4,0.3l-2.3-1.2c-0.3-0.1-0.7-0.1-0.9,0l-2.3,1.2c-0.3,0.1-0.4,0-0.4-0.3l0.4-2.6
	c0-0.3-0.1-0.7-0.3-0.9l-1.9-1.8c-0.2-0.2-0.1-0.4,0.1-0.4l2.6-0.4c0.3,0,0.6-0.3,0.7-0.5L387-43.7z"/>
<g>
	<path class="st6" d="M343.1-46.8c-0.6-0.3-1.6-0.3-2.2,0 M326.8-27.8l-3.4,5.2c-0.3,0.5-0.1,1,0.6,1h3.4c0.7,0,1,0.4,0.6,1l-13,20
		c-0.3,0.5-0.1,1,0.6,1h6.6c0.7,0,1,0.4,0.6,1l-13.2,20c-0.4,0.5-0.1,1,0.6,1H336c0.7,0,1.2,0.5,1.2,1.1v5.5c0,0.6,0.6,1.1,1.2,1.1
		h6.3c0.7,0,1.2-0.5,1.2-1.1v-5.5c0-0.6,0.6-1.1,1.2-1.1h26.4c0.7,0,1-0.4,0.6-1L361,1.2c-0.3-0.5-0.1-1,0.6-1h6.6
		c0.7,0,1-0.4,0.6-1l-13-20c-0.3-0.5-0.1-1,0.6-1h3.4c0.7,0,1-0.4,0.6-1l-8.3-12.7c-0.3-0.5-0.9-1.4-1.3-1.9l-5-7.6
		c-0.3-0.5-1.1-1.2-1.7-1.5l-1-0.5 M327.9-29.5l-1.1,1.7 M340.8-46.8l-1.3,0.6c-0.6,0.3-1.4,1-1.7,1.5l-4.9,7.5
		c-0.3,0.5-0.9,1.4-1.3,1.9l-3.8,5.8 M324,12.5c-1.5,0-2.8-1.1-2.8-2.5c0-1.4,1.2-2.5,2.8-2.5c1.5,0,2.8,1.1,2.8,2.5
		C326.8,11.4,325.5,12.5,324,12.5z M331.6-6.6c-1.9,0-3.5-1.4-3.5-3.1s1.6-3.1,3.5-3.1c1.9,0,3.5,1.4,3.5,3.1S333.5-6.6,331.6-6.6z
		 M336.6-29.9c0-1.6,1.5-3,3.3-3c1.8,0,3.3,1.3,3.3,3c0,1.6-1.5,3-3.3,3C338.1-27,336.6-28.3,336.6-29.9z M340.8,11.9
		c-1.8,0-3.3-1.3-3.3-3s1.5-3,3.3-3c1.8,0,3.3,1.3,3.3,3S342.6,11.9,340.8,11.9z M347.2-13.8c0-1.6,1.5-3,3.3-3c1.8,0,3.3,1.3,3.3,3
		s-1.5,3-3.3,3C348.7-10.8,347.2-12.1,347.2-13.8z M355,5.3c-1.5,0-2.7-1.1-2.7-2.5s1.2-2.5,2.7-2.5c1.5,0,2.7,1.1,2.7,2.5
		S356.5,5.3,355,5.3z"/>
</g>
<g>
	<path class="st6" d="M420.3,79.2c-0.4-0.6-0.1-1.1,0.6-1.1h6.8c0.7,0,1-0.5,0.6-1.1l-13.5-22.3c-0.4-0.6-0.1-1.1,0.6-1.1h3.5
		c0.7,0,1-0.5,0.6-1.1L411,38.5c-0.4-0.6-1-1.6-1.3-2.2l-5.2-8.5c-0.4-0.6-1.2-1.3-1.8-1.7l-1-0.5c-0.6-0.3-1.7-0.3-2.3,0l-1.4,0.7
		c-0.6,0.3-1.4,1.1-1.8,1.7l-5.1,8.3c-0.4,0.6-1,1.6-1.3,2.2l-8.6,14.1c-0.4,0.6-0.1,1.1,0.6,1.1h3.5c0.7,0,1,0.5,0.6,1.1
		l-13.5,22.3c-0.4,0.6-0.1,1.1,0.6,1.1h6.8c0.7,0,1,0.5,0.6,1.1l-13.7,22.3c-0.4,0.6-0.1,1.1,0.6,1.1h26.8c0.7,0,1.3,0.6,1.3,1.3
		v6.2c0,0.7,0.6,1.3,1.3,1.3h6.5c0.7,0,1.3-0.6,1.3-1.3v-6.2c0-0.7,0.6-1.3,1.3-1.3h27.3c0.7,0,1-0.5,0.6-1.1L420.3,79.2z
		 M381.9,91.8c-1.6,0-2.9-1.3-2.9-2.8c0-1.5,1.3-2.8,2.9-2.8c1.6,0,2.9,1.3,2.9,2.8C384.8,90.5,383.5,91.8,381.9,91.8z M389.8,70.5
		c-2,0-3.6-1.6-3.6-3.5c0-1.9,1.6-3.5,3.6-3.5c2,0,3.6,1.6,3.6,3.5S391.8,70.5,389.8,70.5z M394.9,44.5c0-1.8,1.5-3.3,3.4-3.3
		c1.9,0,3.4,1.5,3.4,3.3c0,1.8-1.5,3.3-3.4,3.3C396.5,47.8,394.9,46.3,394.9,44.5z M399.3,91.1c-1.9,0-3.5-1.5-3.5-3.4
		c0-1.9,1.5-3.4,3.5-3.4c1.9,0,3.4,1.5,3.4,3.4C402.7,89.6,401.2,91.1,399.3,91.1z M406,62.5c0-1.8,1.5-3.3,3.4-3.3
		c1.9,0,3.4,1.5,3.4,3.3c0,1.8-1.5,3.3-3.4,3.3C407.5,65.8,406,64.3,406,62.5z M414,83.7c-1.6,0-2.8-1.2-2.8-2.7s1.3-2.7,2.8-2.7
		s2.8,1.2,2.8,2.7S415.5,83.7,414,83.7z"/>
</g>
<path class="st6" d="M375.5,27.9c-0.6-0.3-1.7-0.3-2.3,0"/>
<rect y="0" class="st0" width="208" height="326"/>
<g>
	<g>
		<linearGradient id="SVGID_1_" gradientUnits="userSpaceOnUse" x1="10.489" y1="193.4401" x2="201.208" y2="193.4401">
			<stop  offset="0" style="stop-color:#24420E"/>
			<stop  offset="0.4603" style="stop-color:#264410"/>
			<stop  offset="0.7106" style="stop-color:#2D4C15"/>
			<stop  offset="0.9099" style="stop-color:#385A1F"/>
			<stop  offset="1" style="stop-color:#406325"/>
		</linearGradient>
		<path class="st7" d="M161.9,224.6c-1-1.7-0.2-3.1,1.8-3.1H183c2,0,2.8-1.4,1.8-3.1l-38.2-63.9c-1-1.7-0.2-3.1,1.8-3.1h10
			c2,0,2.8-1.4,1.8-3.1L135.8,108c-1-1.7-2.7-4.5-3.7-6.2l-14.7-24.4c-1-1.7-3.3-3.8-5.1-4.7l-2.9-1.5c-1.8-0.9-4.7-0.9-6.5,0
			l-3.9,2C97.3,74.1,95,76.3,94,78l-14.4,23.8c-1,1.7-2.7,4.5-3.7,6.2l-24.4,40.4c-1,1.7-0.2,3.1,1.8,3.1h10c2,0,2.8,1.4,1.8,3.1
			l-38.2,63.9c-1,1.7-0.2,3.1,1.8,3.1H48c2,0,2.8,1.4,1.8,3.1l-38.8,63.9c-1,1.7-0.2,3.1,1.8,3.1h75.9c2,0,3.6,1.6,3.6,3.6v17.6
			c0,2,1.6,3.6,3.6,3.6h18.4c2,0,3.6-1.6,3.6-3.6v-17.6c0-2,1.6-3.6,3.6-3.6H199c2,0,2.8-1.4,1.8-3.1L161.9,224.6z"/>
	</g>
</g>
<polygon class="st8" points="88.6,291.6 121.6,291.6 118,295.2 118,312.8 114.3,316.4 95.9,316.4 92.2,312.8 92.2,295.2 "/>
<path class="st9" d="M118,315.3"/>
<radialGradient id="SVGID_2_" cx="106.0537" cy="54.4081" r="20.1792" gradientUnits="userSpaceOnUse">
	<stop  offset="0" style="stop-color:#FCF3DD"/>
	<stop  offset="0" style="stop-color:#FDEDC1"/>
	<stop  offset="0" style="stop-color:#FFE18A"/>
	<stop  offset="0.5506" style="stop-color:#FFCD03"/>
	<stop  offset="0.668" style="stop-color:#F7C50D"/>
	<stop  offset="1" style="stop-color:#E2B124"/>
</radialGradient>
<path class="st10" d="M105.1,35.9c0.5-1,1.4-1,1.9,0l4.9,9.5c0.5,1,1.9,2,3.1,2.2l11,1.5c1.2,0.2,1.5,1,0.6,1.8l-7.9,7.4
	c-0.9,0.8-1.4,2.4-1.2,3.5l1.9,10.5c0.2,1.1-0.5,1.6-1.6,1.1l-9.8-4.9c-1.1-0.5-2.8-0.5-3.9,0l-9.8,4.9c-1.1,0.5-1.8,0-1.6-1.1
	l1.9-10.5c0.2-1.1-0.3-2.7-1.2-3.5l-7.9-7.4c-0.9-0.8-0.6-1.6,0.6-1.8l11-1.5c1.2-0.2,2.6-1.1,3.1-2.2L105.1,35.9z"/>
<path class="st11" d="M98.6,268.6c-5.5,0-10-4.5-10-10c0-5.5,4.5-10,10-10c5.5,0,10,4.5,10,10C108.6,264.2,104.1,268.6,98.6,268.6z"
	/>
<path class="st12" d="M134.3,234.6c-3.9,0-7-3.1-7-7c0-3.9,3.1-7,7-7c3.9,0,7,3.1,7,7C141.3,231.5,138.2,234.6,134.3,234.6z"/>
<path class="st12" d="M94.3,125.6c-4.4,0-8-3.6-8-8s3.6-8,8-8c4.4,0,8,3.6,8,8S98.8,125.6,94.3,125.6z"/>
<path class="st13" d="M127.3,167.1c-4.1,0-7.5-3.4-7.5-7.5s3.4-7.5,7.5-7.5c4.1,0,7.5,3.4,7.5,7.5S131.5,167.1,127.3,167.1z"/>
<path class="st11" d="M77.5,190.1c-4.7,0-8.5-3.8-8.5-8.5c0-4.7,3.8-8.5,8.5-8.5c4.7,0,8.5,3.8,8.5,8.5
	C86,186.3,82.2,190.1,77.5,190.1z"/>
<path class="st14" d="M41.8,275.6c-3.9,0-7-3.1-7-7s3.1-7,7-7c3.9,0,7,3.1,7,7S45.6,275.6,41.8,275.6z"/>
<g>
	
		<image style="overflow:visible;" width="120" height="129" xlink:href="7263C617.png"  transform="matrix(1 0 0 1 -235.8971 -2.3737)">
	</image>
</g>
<g>
	
		<image style="overflow:visible;" width="418" height="325" xlink:href="7263C615.png"  transform="matrix(1 0 0 1 -505.8972 5.6263)">
	</image>
</g>
<path class="st15" d="M-97.8,119.6l-186.9-94.8c-5.2-3.9-13.4-4.7-19.7-1.4l-188.9,96.5c-7.3,3.7-9.3,11.3-4.5,17
	c4.8,5.6,14.6,7.2,21.9,3.5l179.9-91.9l180.8,91.7c7.3,3.7,17.1,2.1,21.9-3.5C-88.4,130.9-90.5,123.3-97.8,119.6z"/>
<path class="st16" d="M-97.8,112.3l-186.9-94.8c-5.2-3.9-13.4-4.7-19.7-1.4l-188.9,96.5c-7.3,3.7-9.3,11.3-4.5,17
	c4.8,5.6,14.6,7.2,21.9,3.5l179.9-91.9l180.8,91.7c7.3,3.7,17.1,2.1,21.9-3.5C-88.4,123.6-90.5,116-97.8,112.3z"/>
<path class="st17" d="M-261.5,293.2h-67.9V189.2c0-2.5,2-4.5,4.5-4.5h59c2.5,0,4.5,2,4.5,4.5V293.2z"/>
<path class="st18" d="M-268.4,268.6h-2.8c-1.5,0-2.7-1.2-2.7-2.7v-35.1c0-1.5,1.2-2.7,2.7-2.7h2.8c1.5,0,2.7,1.2,2.7,2.7V266
	C-265.7,267.4-266.9,268.6-268.4,268.6z"/>
<radialGradient id="SVGID_3_" cx="-264.1481" cy="90.7949" r="21.3768" gradientTransform="matrix(1.0485 0 0 1.0405 -18.5019 -11.0643)" gradientUnits="userSpaceOnUse">
	<stop  offset="0" style="stop-color:#FFFFFF"/>
	<stop  offset="1.298010e-02" style="stop-color:#FEFCF8"/>
	<stop  offset="0.1215" style="stop-color:#F9E8C3"/>
	<stop  offset="0.2342" style="stop-color:#F5D794"/>
	<stop  offset="0.3491" style="stop-color:#F1C86C"/>
	<stop  offset="0.4665" style="stop-color:#EEBB4C"/>
	<stop  offset="0.5872" style="stop-color:#EBB233"/>
	<stop  offset="0.7126" style="stop-color:#E9AB21"/>
	<stop  offset="0.8458" style="stop-color:#E8A716"/>
	<stop  offset="1" style="stop-color:#E8A613"/>
</radialGradient>
<ellipse class="st19" cx="-295.5" cy="83.4" rx="23.7" ry="20.9"/>
<g>
	
		<radialGradient id="SVGID_4_" cx="-443.2539" cy="128.7697" r="49.8937" gradientTransform="matrix(0.7368 0 0 0.8119 -72.2909 95.7051)" gradientUnits="userSpaceOnUse">
		<stop  offset="0" style="stop-color:#FFFFFF"/>
		<stop  offset="1.298010e-02" style="stop-color:#FEFCF8"/>
		<stop  offset="0.1215" style="stop-color:#F9E8C3"/>
		<stop  offset="0.2342" style="stop-color:#F5D794"/>
		<stop  offset="0.3491" style="stop-color:#F1C86C"/>
		<stop  offset="0.4665" style="stop-color:#EEBB4C"/>
		<stop  offset="0.5872" style="stop-color:#EBB233"/>
		<stop  offset="0.7126" style="stop-color:#E9AB21"/>
		<stop  offset="0.8458" style="stop-color:#E8A716"/>
		<stop  offset="1" style="stop-color:#E8A613"/>
	</radialGradient>
	<rect x="-429.3" y="153.8" class="st20" width="60.9" height="92.9"/>
	
		<radialGradient id="SVGID_5_" cx="-443.2539" cy="147.8412" r="29.1996" gradientTransform="matrix(0.7368 0 0 0.8119 -72.2909 95.7051)" gradientUnits="userSpaceOnUse">
		<stop  offset="0" style="stop-color:#FFFFFF"/>
		<stop  offset="1.298010e-02" style="stop-color:#FEFCF8"/>
		<stop  offset="0.1215" style="stop-color:#F9E8C3"/>
		<stop  offset="0.2342" style="stop-color:#F5D794"/>
		<stop  offset="0.3491" style="stop-color:#F1C86C"/>
		<stop  offset="0.4665" style="stop-color:#EEBB4C"/>
		<stop  offset="0.5872" style="stop-color:#EBB233"/>
		<stop  offset="0.7126" style="stop-color:#E9AB21"/>
		<stop  offset="0.8458" style="stop-color:#E8A716"/>
		<stop  offset="1" style="stop-color:#E8A613"/>
	</radialGradient>
	<line class="st21" x1="-429.3" y1="215.7" x2="-368.5" y2="215.7"/>
	
		<radialGradient id="SVGID_6_" cx="-443.2539" cy="109.6981" r="29.1996" gradientTransform="matrix(0.7368 0 0 0.8119 -72.2909 95.7051)" gradientUnits="userSpaceOnUse">
		<stop  offset="0" style="stop-color:#FFFFFF"/>
		<stop  offset="1.298010e-02" style="stop-color:#FEFCF8"/>
		<stop  offset="0.1215" style="stop-color:#F9E8C3"/>
		<stop  offset="0.2342" style="stop-color:#F5D794"/>
		<stop  offset="0.3491" style="stop-color:#F1C86C"/>
		<stop  offset="0.4665" style="stop-color:#EEBB4C"/>
		<stop  offset="0.5872" style="stop-color:#EBB233"/>
		<stop  offset="0.7126" style="stop-color:#E9AB21"/>
		<stop  offset="0.8458" style="stop-color:#E8A716"/>
		<stop  offset="1" style="stop-color:#E8A613"/>
	</radialGradient>
	<line class="st22" x1="-429.3" y1="184.8" x2="-368.5" y2="184.8"/>
	
		<radialGradient id="SVGID_7_" cx="-443.2539" cy="128.7697" r="40.4569" gradientTransform="matrix(0.7368 0 0 0.8119 -72.2909 95.7051)" gradientUnits="userSpaceOnUse">
		<stop  offset="0" style="stop-color:#FFFFFF"/>
		<stop  offset="1.298010e-02" style="stop-color:#FEFCF8"/>
		<stop  offset="0.1215" style="stop-color:#F9E8C3"/>
		<stop  offset="0.2342" style="stop-color:#F5D794"/>
		<stop  offset="0.3491" style="stop-color:#F1C86C"/>
		<stop  offset="0.4665" style="stop-color:#EEBB4C"/>
		<stop  offset="0.5872" style="stop-color:#EBB233"/>
		<stop  offset="0.7126" style="stop-color:#E9AB21"/>
		<stop  offset="0.8458" style="stop-color:#E8A716"/>
		<stop  offset="1" style="stop-color:#E8A613"/>
	</radialGradient>
	<line class="st23" x1="-398.9" y1="153.8" x2="-398.9" y2="246.7"/>
</g>
<g>
	
		<radialGradient id="SVGID_8_" cx="-164.5301" cy="128.7697" r="49.8937" gradientTransform="matrix(0.7368 0 0 0.8119 -72.2909 95.7051)" gradientUnits="userSpaceOnUse">
		<stop  offset="0" style="stop-color:#FFFFFF"/>
		<stop  offset="1.298010e-02" style="stop-color:#FEFCF8"/>
		<stop  offset="0.1215" style="stop-color:#F9E8C3"/>
		<stop  offset="0.2342" style="stop-color:#F5D794"/>
		<stop  offset="0.3491" style="stop-color:#F1C86C"/>
		<stop  offset="0.4665" style="stop-color:#EEBB4C"/>
		<stop  offset="0.5872" style="stop-color:#EBB233"/>
		<stop  offset="0.7126" style="stop-color:#E9AB21"/>
		<stop  offset="0.8458" style="stop-color:#E8A716"/>
		<stop  offset="1" style="stop-color:#E8A613"/>
	</radialGradient>
	<rect x="-223.9" y="153.8" class="st24" width="60.9" height="92.9"/>
	
		<radialGradient id="SVGID_9_" cx="-164.5301" cy="147.8412" r="29.1996" gradientTransform="matrix(0.7368 0 0 0.8119 -72.2909 95.7051)" gradientUnits="userSpaceOnUse">
		<stop  offset="0" style="stop-color:#FFFFFF"/>
		<stop  offset="1.298010e-02" style="stop-color:#FEFCF8"/>
		<stop  offset="0.1215" style="stop-color:#F9E8C3"/>
		<stop  offset="0.2342" style="stop-color:#F5D794"/>
		<stop  offset="0.3491" style="stop-color:#F1C86C"/>
		<stop  offset="0.4665" style="stop-color:#EEBB4C"/>
		<stop  offset="0.5872" style="stop-color:#EBB233"/>
		<stop  offset="0.7126" style="stop-color:#E9AB21"/>
		<stop  offset="0.8458" style="stop-color:#E8A716"/>
		<stop  offset="1" style="stop-color:#E8A613"/>
	</radialGradient>
	<line class="st25" x1="-223.9" y1="215.7" x2="-163.1" y2="215.7"/>
	
		<radialGradient id="SVGID_10_" cx="-164.5301" cy="109.6981" r="29.1996" gradientTransform="matrix(0.7368 0 0 0.8119 -72.2909 95.7051)" gradientUnits="userSpaceOnUse">
		<stop  offset="0" style="stop-color:#FFFFFF"/>
		<stop  offset="1.298010e-02" style="stop-color:#FEFCF8"/>
		<stop  offset="0.1215" style="stop-color:#F9E8C3"/>
		<stop  offset="0.2342" style="stop-color:#F5D794"/>
		<stop  offset="0.3491" style="stop-color:#F1C86C"/>
		<stop  offset="0.4665" style="stop-color:#EEBB4C"/>
		<stop  offset="0.5872" style="stop-color:#EBB233"/>
		<stop  offset="0.7126" style="stop-color:#E9AB21"/>
		<stop  offset="0.8458" style="stop-color:#E8A716"/>
		<stop  offset="1" style="stop-color:#E8A613"/>
	</radialGradient>
	<line class="st26" x1="-223.9" y1="184.8" x2="-163.1" y2="184.8"/>
	
		<radialGradient id="SVGID_11_" cx="-164.5301" cy="128.7697" r="40.4569" gradientTransform="matrix(0.7368 0 0 0.8119 -72.2909 95.7051)" gradientUnits="userSpaceOnUse">
		<stop  offset="0" style="stop-color:#FFFFFF"/>
		<stop  offset="1.298010e-02" style="stop-color:#FEFCF8"/>
		<stop  offset="0.1215" style="stop-color:#F9E8C3"/>
		<stop  offset="0.2342" style="stop-color:#F5D794"/>
		<stop  offset="0.3491" style="stop-color:#F1C86C"/>
		<stop  offset="0.4665" style="stop-color:#EEBB4C"/>
		<stop  offset="0.5872" style="stop-color:#EBB233"/>
		<stop  offset="0.7126" style="stop-color:#E9AB21"/>
		<stop  offset="0.8458" style="stop-color:#E8A716"/>
		<stop  offset="1" style="stop-color:#E8A613"/>
	</radialGradient>
	<line class="st27" x1="-193.5" y1="153.8" x2="-193.5" y2="246.7"/>
</g>
<line class="st28" x1="-295.5" y1="62.5" x2="-295.5" y2="104.3"/>
<line class="st28" x1="-319.2" y1="83.4" x2="-271.8" y2="83.4"/>
<line class="st29" x1="-331.9" y1="292.3" x2="-258.3" y2="292.3"/>
<line class="st30" x1="-203.1" y1="31.4" x2="-148" y2="31.4"/>
<g>
	
		<image style="overflow:visible;" width="118" height="118" xlink:href="7263C61B.png"  transform="matrix(1 0 0 1 -354.3517 156.6263)">
	</image>
</g>
<g>
	<g>
		<path class="st31" d="M-65.3,325.9c-9.7,8.9-31.7-19.8-20-28.1C-73.8,289.5-53.3,319.4-65.3,325.9c6.7-7.1-10-28.9-17.2-24.2
			C-89.9,307.3-73.5,329.6-65.3,325.9z"/>
		<path class="st31" d="M-58,325.9c9.7,8.9,31.7-19.8,20-28.1C-49.5,289.5-70,319.4-58,325.9c-6.7-7.1,10-28.9,17.2-24.2
			C-33.5,307.3-49.8,329.6-58,325.9z"/>
	</g>
	<path class="st31" d="M-59.4,327.5h-4.5c-0.9,0-1.6-0.7-1.6-1.6v-2.8c0-0.9,0.7-1.6,1.6-1.6h4.5c0.9,0,1.6,0.7,1.6,1.6v2.8
		C-57.8,326.8-58.5,327.5-59.4,327.5z"/>
	<g>
		<path class="st32" d="M-27.9,373c0,1.6-1.3,3-3,3h-61.5c-1.6,0-3-1.4-3-3v-38.5c0-1.6,1.4-3,3-3h61.5c1.7,0,3,1.4,3,3V373z"/>
		<path class="st33" d="M-27.9,373c0,1.6-1.3,3-3,3h-61.5c-1.6,0-3-1.4-3-3v-38.5c0-1.6,1.4-3,3-3h61.5c1.7,0,3,1.4,3,3V373z"/>
		<path class="st34" d="M-27.9,373c0,1.6-1.3,3-3,3h-61.5c-1.6,0-3-1.4-3-3v-38.5c0-1.6,1.4-3,3-3h61.5c1.7,0,3,1.4,3,3V373z"/>
	</g>
	<g>
		<path class="st32" d="M-24.2,334.1c0,1.6-1.3,3-3,3h-68.9c-1.7,0-3-1.4-3-3V329c0-1.6,1.3-3,3-3h68.9c1.7,0,3,1.4,3,3V334.1z"/>
		<path class="st34" d="M-24.2,334.1c0,1.6-1.3,3-3,3h-68.9c-1.7,0-3-1.4-3-3V329c0-1.6,1.3-3,3-3h68.9c1.7,0,3,1.4,3,3V334.1z"/>
	</g>
	<rect x="-66.1" y="326" class="st35" width="8.9" height="50"/>
</g>
<g>
	<g>
		<path class="st36" d="M44.1,403.9c-12.5,8.8-40.5-19.6-25.6-27.8C33.2,368,59.5,397.5,44.1,403.9c8.6-7-12.8-28.6-22-23.9
			C12.7,385.5,33.6,407.5,44.1,403.9z"/>
		<path class="st36" d="M53.4,403.9c12.5,8.8,40.5-19.6,25.6-27.8C64.3,368,38.1,397.5,53.4,403.9c-8.6-7,12.8-28.6,22-23.9
			C84.9,385.5,64,407.5,53.4,403.9z"/>
	</g>
	<path class="st36" d="M52.1,405.5h-6.6c-0.9,0-1.6-0.7-1.6-1.6v-2.8c0-0.9,0.7-1.6,1.6-1.6h6.6c0.9,0,1.6,0.7,1.6,1.6v2.8
		C53.6,404.8,52.9,405.5,52.1,405.5z"/>
	<g>
		<path class="st37" d="M93.2,450.4c0,1.7-1.8,3.1-3.9,3.1h-81c-2.2,0-3.9-1.4-3.9-3.1v-39.2c0-1.7,1.8-3.1,3.9-3.1h81
			c2.2,0,3.9,1.4,3.9,3.1V450.4z"/>
		<path class="st38" d="M93.2,450.4c0,1.7-1.8,3.1-3.9,3.1h-81c-2.2,0-3.9-1.4-3.9-3.1v-39.2c0-1.7,1.8-3.1,3.9-3.1h81
			c2.2,0,3.9,1.4,3.9,3.1V450.4z"/>
		<path class="st34" d="M93.2,450.4c0,1.7-1.8,3.1-3.9,3.1h-81c-2.2,0-3.9-1.4-3.9-3.1v-39.2c0-1.7,1.8-3.1,3.9-3.1h81
			c2.2,0,3.9,1.4,3.9,3.1V450.4z"/>
	</g>
	<g>
		<path class="st37" d="M98,410.8c0,1.7-1.8,3.1-3.9,3.1H3.5c-2.2,0-3.9-1.4-3.9-3.1v-5.1c0-1.7,1.8-3.1,3.9-3.1h90.6
			c2.2,0,3.9,1.4,3.9,3.1V410.8z"/>
		<path class="st34" d="M98,410.8c0,1.7-1.8,3.1-3.9,3.1H3.5c-2.2,0-3.9-1.4-3.9-3.1v-5.1c0-1.7,1.8-3.1,3.9-3.1h90.6
			c2.2,0,3.9,1.4,3.9,3.1V410.8z"/>
	</g>
	<rect x="43.1" y="402.6" class="st36" width="11.4" height="50.8"/>
</g>
<g>
	<g>
		<path class="st31" d="M-151.7,352.5c-9.7,8.9-31.7-19.8-20-28.1C-160.2,316.2-139.7,346-151.7,352.5c6.7-7.1-10-28.9-17.2-24.2
			C-176.2,333.9-159.9,356.2-151.7,352.5z"/>
		<path class="st31" d="M-144.4,352.5c9.7,8.9,31.7-19.8,20-28.1C-135.9,316.2-156.4,346-144.4,352.5c-6.7-7.1,10-28.9,17.2-24.2
			C-119.8,333.9-136.2,356.2-144.4,352.5z"/>
	</g>
	<path class="st31" d="M-145.8,354.2h-4.5c-0.9,0-1.6-0.7-1.6-1.6v-2.8c0-0.9,0.7-1.6,1.6-1.6h4.5c0.9,0,1.6,0.7,1.6,1.6v2.8
		C-144.2,353.5-144.9,354.2-145.8,354.2z"/>
	<g>
		<path class="st39" d="M-114.3,458.3c0,3.9-1.3,7.1-3,7.1h-61.5c-1.6,0-3-3.2-3-7.1v-90.6c0-3.9,1.4-7.1,3-7.1h61.5
			c1.7,0,3,3.2,3,7.1V458.3z"/>
		<path class="st40" d="M-114.3,458.3c0,3.9-1.3,7.1-3,7.1h-61.5c-1.6,0-3-3.2-3-7.1v-90.6c0-3.9,1.4-7.1,3-7.1h61.5
			c1.7,0,3,3.2,3,7.1V458.3z"/>
		<path class="st34" d="M-114.3,458.3c0,3.9-1.3,7.1-3,7.1h-61.5c-1.6,0-3-3.2-3-7.1v-90.6c0-3.9,1.4-7.1,3-7.1h61.5
			c1.7,0,3,3.2,3,7.1V458.3z"/>
	</g>
	<g>
		<path class="st39" d="M-110.6,360.7c0,1.6-1.3,3-3,3h-68.9c-1.6,0-3-1.4-3-3v-5.1c0-1.6,1.4-3,3-3h68.9c1.7,0,3,1.4,3,3V360.7z"/>
		<path class="st34" d="M-110.6,360.7c0,1.6-1.3,3-3,3h-68.9c-1.6,0-3-1.4-3-3v-5.1c0-1.6,1.4-3,3-3h68.9c1.7,0,3,1.4,3,3V360.7z"/>
	</g>
	<rect x="-152.5" y="352.6" class="st35" width="8.9" height="112.7"/>
</g>
<g>
	<g>
		<path class="st31" d="M-60.8,424.5c-9.7,8.9-31.7-19.8-20-28.1C-69.3,388.2-48.8,418-60.8,424.5c6.7-7.1-10-28.9-17.2-24.2
			C-85.4,405.9-69.1,428.2-60.8,424.5z"/>
		<path class="st31" d="M-53.5,424.5c9.7,8.9,31.7-19.8,20-28.1C-45,388.2-65.5,418-53.5,424.5c-6.7-7.1,10-28.9,17.2-24.2
			C-29,405.9-45.3,428.2-53.5,424.5z"/>
	</g>
	<path class="st31" d="M-54.9,426.2h-4.5c-0.9,0-1.6-0.7-1.6-1.6v-2.8c0-0.9,0.7-1.6,1.6-1.6h4.5c0.9,0,1.6,0.7,1.6,1.6v2.8
		C-53.4,425.5-54.1,426.2-54.9,426.2z"/>
	<g>
		<path class="st32" d="M-33.7,471.7c0,1.7-1,3-2.2,3h-44.9c-1.2,0-2.2-1.3-2.2-3v-38.5c0-1.6,1-3,2.2-3h44.9c1.2,0,2.2,1.4,2.2,3
			V471.7z"/>
		<path class="st34" d="M-33.7,471.7c0,1.7-1,3-2.2,3h-44.9c-1.2,0-2.2-1.3-2.2-3v-38.5c0-1.6,1-3,2.2-3h44.9c1.2,0,2.2,1.4,2.2,3
			V471.7z"/>
	</g>
	<g>
		<path class="st32" d="M-31,432.7c0,1.7-1,3-2.2,3h-50.2c-1.2,0-2.2-1.3-2.2-3v-5.1c0-1.6,1-3,2.2-3h50.2c1.2,0,2.2,1.4,2.2,3
			V432.7z"/>
		<path class="st34" d="M-31,432.7c0,1.7-1,3-2.2,3h-50.2c-1.2,0-2.2-1.3-2.2-3v-5.1c0-1.6,1-3,2.2-3h50.2c1.2,0,2.2,1.4,2.2,3
			V432.7z"/>
	</g>
	<rect x="-61.6" y="424.7" class="st35" width="9.9" height="50"/>
</g>
<g>
	<circle class="st2" cx="-169.5" cy="488.2" r="5.5"/>
	<circle class="st2" cx="-145.8" cy="482.3" r="2.2"/>
	<circle class="st2" cx="-150.3" cy="493.1" r="2.2"/>
	<circle class="st2" cx="-138.7" cy="489.5" r="1.3"/>
	<circle class="st2" cx="-157.8" cy="481.7" r="3.8"/>
	<circle class="st2" cx="-126.2" cy="485.3" r="3"/>
	<circle class="st2" cx="-156.7" cy="504.3" r="4.8"/>
	<circle class="st2" cx="-126.8" cy="507" r="5.8"/>
	<circle class="st2" cx="-137.2" cy="502.2" r="2.7"/>
	<circle class="st2" cx="-119.4" cy="498.1" r="5.1"/>
	<circle class="st2" cx="-146.9" cy="513.9" r="1.1"/>
	<circle class="st2" cx="-172.1" cy="506.2" r="3"/>
	<circle class="st2" cx="-160.4" cy="521.7" r="3.7"/>
	<circle class="st2" cx="-141.5" cy="526" r="4.3"/>
	<circle class="st2" cx="-125.8" cy="525.3" r="3.3"/>
	<polygon class="st2" points="-154,528.7 -154,528.7 -154,528.7 -154,528.7 	"/>
	<circle class="st2" cx="-173.6" cy="523.5" r="1.5"/>
	<circle class="st2" cx="-165.9" cy="529.5" r="0.8"/>
</g>
<g>
	<polygon class="st3" points="-70.7,493.1 -74.7,491.5 -78.3,494 -78.1,489.6 -81.6,487 -77.4,485.8 -76,481.7 -73.6,485.4 
		-69.2,485.5 -71.9,488.9 	"/>
	<polygon class="st3" points="-56.6,493.7 -59.8,494.8 -60.7,498.1 -62.8,495.3 -66.1,495.5 -64.2,492.7 -65.3,489.5 -62.1,490.6 
		-59.4,488.5 -59.4,491.8 	"/>
	<polygon class="st3" points="-41.2,493.1 -43.3,492.5 -45,493.9 -45.1,491.7 -47,490.5 -44.9,489.7 -44.4,487.6 -43,489.3 
		-40.8,489.2 -42,491 	"/>
	<polygon class="st3" points="-51.7,501.2 -52.2,500.1 -53.3,500 -52.5,499.2 -52.7,498.1 -51.7,498.6 -50.7,498.1 -50.9,499.2 
		-50,500 -51.2,500.1 	"/>
	<polygon class="st3" points="-66.1,504.9 -71.7,507.2 -72.9,513 -76.8,508.5 -82.8,509.1 -79.7,504 -82.1,498.5 -76.3,499.9 
		-71.8,495.9 -71.3,501.9 	"/>
	<polygon class="st3" points="-43.7,507 -46.3,506.7 -48,508.7 -48.5,506.1 -50.9,505.1 -48.6,503.8 -48.4,501.2 -46.5,503 
		-44,502.3 -45,504.7 	"/>
	<polygon class="st3" points="-58.3,513 -58.8,510.4 -61.2,509.3 -58.8,508 -58.5,505.3 -56.6,507.2 -53.9,506.7 -55.1,509.1 
		-53.8,511.4 -56.5,511.1 	"/>
	<polygon class="st3" points="-65.5,518 -67.6,516.8 -69.7,517.8 -69.2,515.5 -70.9,513.7 -68.5,513.5 -67.4,511.3 -66.4,513.5 
		-64,514 -65.8,515.6 	"/>
	<polygon class="st3" points="-47,518 -48.6,516.5 -50.7,517 -49.8,515.1 -50.9,513.2 -48.7,513.5 -47.3,511.8 -46.9,513.9 
		-44.9,514.8 -46.8,515.8 	"/>
	<polygon class="st3" points="-34.7,502.2 -37,501.3 -39.1,502.8 -39,500.3 -41,498.8 -38.6,498.1 -37.8,495.7 -36.4,497.8 
		-33.9,497.8 -35.4,499.8 	"/>
	<polygon class="st3" points="-34.7,513 -36.7,513.1 -37.8,514.9 -38.5,513 -40.4,512.5 -38.9,511.2 -39,509.2 -37.3,510.3 
		-35.4,509.5 -36,511.5 	"/>
	<polygon class="st3" points="-49.7,488.5 -51.9,488.2 -53.4,490 -53.9,487.8 -56,486.9 -54,485.8 -53.8,483.5 -52.1,485 -50,484.5 
		-50.9,486.5 	"/>
</g>
<g>
	
		<rect x="23.9" y="472.8" transform="matrix(-0.9204 -0.391 0.391 -0.9204 -140.7261 975.5713)" class="st1" width="10" height="58.6"/>
	<rect x="35" y="475.8" transform="matrix(0.9204 0.391 -0.391 0.9204 200.3531 26.1061)" class="st1" width="2.1" height="58.6"/>
	
		<rect x="38.3" y="478.9" transform="matrix(-0.9204 -0.391 0.391 -0.9204 -115.4736 992.9403)" class="st1" width="10" height="58.6"/>
	<rect x="49.4" y="481.9" transform="matrix(0.9204 0.391 -0.391 0.9204 203.889 20.9653)" class="st1" width="2.1" height="58.6"/>
	
		<rect x="52.6" y="485.3" transform="matrix(-0.9204 -0.391 0.391 -0.9204 -90.6067 1010.7579)" class="st1" width="10" height="58.6"/>
	
		<rect x="63.6" y="488.3" transform="matrix(0.9204 0.391 -0.391 0.9204 207.5163 15.9029)" class="st1" width="2.1" height="58.6"/>
	
		<rect x="67.1" y="491.5" transform="matrix(-0.9204 -0.391 0.391 -0.9204 -65.0288 1028.3507)" class="st1" width="10" height="58.6"/>
	
		<rect x="78.2" y="494.5" transform="matrix(0.9204 0.391 -0.391 0.9204 211.0978 10.6958)" class="st1" width="2.1" height="58.6"/>
</g>
</svg>
