<svg xmlns="http://www.w3.org/2000/svg" xmlns:xlink="http://www.w3.org/1999/xlink" version="1.1" x="0px" y="0px" viewBox="0 0 53 88.75125" enable-background="new 0 0 53 71.001" xml:space="preserve"><g display="none"><g display="inline"><path fill="#000000" d="M26.867,43.759c-1.104,0-1.997-0.903-1.992-2.008c0,0,0.959-15.959,2.064-15.954    c1.105,0.004,1.936,15.971,1.936,15.971C28.872,42.538,28.422,43.759,26.867,43.759z"/></g><path display="inline" fill="#000000" d="M33.343,18.459c1.613-1.62,2.612-3.853,2.612-6.314c0-4.938-4.018-8.955-8.955-8.955   c-4.938,0-8.955,4.017-8.955,8.955c0,2.461,0.999,4.694,2.612,6.314c-3.37,0.92-6.45,2.55-9.063,4.725l-1.92-1.987l1.438-1.39   c0.794-0.768,0.815-2.034,0.048-2.828s-2.033-0.815-2.828-0.048l-5.752,5.56c-0.794,0.768-0.876,2.098-0.048,2.828   c1.006,0.886,2.439,0.423,2.828,0.048l1.438-1.39l1.946,2.013c-3.649,4.228-5.864,9.728-5.864,15.738   C2.879,55.029,13.7,65.85,27,65.85c13.301,0,24.121-10.821,24.121-24.121C51.121,30.623,43.575,21.252,33.343,18.459z    M20.045,12.146c0-3.835,3.12-6.955,6.955-6.955s6.955,3.12,6.955,6.955c0,2.404-1.227,4.527-3.087,5.776   c-0.615-0.1-1.238-0.172-1.868-0.225v-2.695h2c1.104,0,2-0.896,2-2s-0.896-2-2-2h-8c-1.104,0-2,0.896-2,2s0.896,2,2,2h2v2.695   c-0.63,0.052-1.253,0.125-1.868,0.225C21.272,16.672,20.045,14.55,20.045,12.146z M27,61.85c-11.095,0-20.121-9.026-20.121-20.121   c0-11.095,9.026-20.122,20.121-20.122s20.121,9.026,20.121,20.122C47.121,52.824,38.095,61.85,27,61.85z"/></g><g display="none"><path display="inline" fill="#000000" d="M50.936,17.716c-0.821-0.854-1.705-1.287-2.627-1.287c-0.447,0-0.854,0.104-1.207,0.253   c0.088-0.485,0.088-1.027-0.109-1.56c-0.363-0.98-1.286-1.672-2.743-2.056c-1.021-0.271-1.887-0.04-2.521,0.659   c-1.384,1.522-1.248,4.972-1.185,5.882c-0.955,1.094-6.533,7.487-6.765,7.755c-0.221,0.256-0.454,0.836-0.256,1.27   c0.194,0.426,0.684,0.554,1.298,0.227c2.519-1.348,3.276-1.453,3.405-1.486c0.144,0.104,0.285,0.612,0.15,2.437   c-0.051,0.681-0.065,0.886,0.145,1.084c0.073,0.069,0.165,0.114,0.264,0.13c0.026,0.004,0.105,0.01,0.132,0.01   c0.704,0,2.397-1.027,3.093-1.469c0.055-0.034,0.102-0.079,0.14-0.131l4.176-5.847c0.165,0.021,0.332,0.032,0.499,0.032   c2.018,0,3.732-1.548,4.384-3.078C51.684,19.42,51.585,18.391,50.936,17.716z"/><path display="inline" fill="#000000" d="M42.485,35.382c-0.06-0.243-0.282-0.403-0.54-0.377c-0.017,0.002-1.611,0.177-2.682,0.177   c-0.121,0-0.223-0.002-0.308-0.005c0.48-0.728,1.649-2.205,2.702-3.451c0.147-0.175,0.158-0.428,0.024-0.614   c-0.133-0.187-0.377-0.257-0.589-0.174c-0.634,0.249-2.431,0.89-3.206,0.903c-0.079-0.958-0.26-3.08-0.26-3.08   c-0.015-0.178-0.124-0.335-0.286-0.411c-0.161-0.075-0.352-0.059-0.499,0.044c-0.998,0.7-2.68,1.687-3.302,1.702   c-0.348-0.25-1.056-2.035-1.499-3.547c-0.065-0.223-0.263-0.373-0.511-0.358c-0.233,0.015-0.425,0.189-0.463,0.42   c-0.156,0.974-0.657,2.675-1.331,3.091l-0.25,0.155c-7.159,4.47-13.427,7.324-17.424,8.931c-8.805,3.54-8.665,17.306-7.412,21   c1.143,3.367,4.1,5.222,8.327,5.222c4.156,0,9.045-1.864,13.078-4.987c4.686-3.628,8.315-10.888,10.496-20.994   c0.057-0.26,0.092-0.431,0.08-0.431c0,0,0,0-0.001,0c0.317-0.406,3.129-1.681,5.552-2.63   C42.416,35.875,42.546,35.625,42.485,35.382z"/></g><g display="none"><path display="inline" d="M51.367,16.001c0.924,2,0.172,8.326-0.952,12.088c-1.03,3.452-2.703,6.896-5.149,9.563   c-2.175,2.373-4.894,4.2-7.909,5.311c-3.064,1.119-6.318,1.57-9.57,1.519c-0.122-1.07-0.212-2.13-0.296-3.205   c3.699-0.257,7.402-1.131,10.574-3.118c3.017-1.889,5.327-4.65,6.836-7.86c0.979-2.08,1.647-4.547,2.062-6.806   c0.444-2.416,0.579-4.493,1.259-7.493h-2.203c0.575,3,0.501,4.211,0.191,6.191c-0.295,1.885-0.751,3.878-1.435,5.661   c-1.306,3.404-3.474,6.545-6.562,8.547c-3.209,2.079-7.092,2.853-10.87,2.724c-0.029-0.501-0.116-2.493-0.119-2.618   c-0.009-0.251-0.028-0.241,0.222-0.262c0.933-0.079,1.862-0.199,2.779-0.393c1.792-0.379,3.543-1.036,5.08-2.044   c3.186-2.092,4.963-5.517,5.824-9.145c0.323-1.361,0.521-2.979,0.658-4.37c0.135-1.36,0.287-2.293,0.802-4.293h-2.204   c0.732,2,0.521,4.165,0.202,6.104c-0.304,1.841-0.774,3.775-1.587,5.463c-0.746,1.549-1.769,3.008-3.115,4.087   c-1.363,1.093-2.984,1.819-4.69,2.168c-1.324,0.271-2.684,0.352-4.03,0.281c-0.016-0.983-0.022-2.429-0.021-3.413   c0,0,2.017-0.102,2.47-0.224c1.779-0.479,3.408-1.433,4.461-2.974c1.063-1.559,1.472-3.462,1.677-5.309   c0.107-0.96,0.153-2.159,0.191-3.124c0.036-0.969,0.161-2.062,0.66-3.062h-2.203c0.766,2,0.608,3.134,0.491,4.594   c-0.118,1.489-0.351,3.106-0.928,4.492c-0.529,1.273-1.435,2.416-2.688,3.021c-1.28,0.616-2.723,0.76-4.122,0.654   c0.007-1.431,0.014-2.857,0.021-4.288c0.007-1.531-0.028-3.145,0.015-4.676c0.039-1.403,0.454-2.796,1.421-3.796h-3.933   c0.597,1,1.038,1.495,1.246,2.352c0.18,0.742,0.188,1.551,0.176,2.311c-0.008,0.484,0,0.989,0.002,1.475   c0.01,1.896,0.019,3.802,0.027,5.698c0.002,0.318,0.004,0.631,0.005,0.951c-1.393,0.074-2.796-0.076-4.052-0.714   c-1.235-0.628-2.081-1.697-2.593-2.97c-0.545-1.358-0.768-3.057-0.884-4.508c-0.116-1.46-0.272-2.593,0.494-4.593h-2.202   c0.475,1,0.619,2.014,0.657,2.939c0.039,0.967,0.081,2.05,0.185,3.012c0.2,1.852,0.592,3.818,1.639,5.392   c1,1.504,2.541,2.498,4.25,3.011c0.425,0.127,2.515,0.516,2.515,0.329s-0.004,2.404-0.021,3.444   c-3.635,0.132-7.304-0.873-9.798-3.645c-2.472-2.746-3.399-6.929-3.679-10.52c-0.098-1.252,0.008-1.962,0.468-3.962H10.91   c0.748,2,0.737,4.172,1.024,6.132c0.276,1.882,0.736,3.88,1.482,5.633c0.725,1.703,1.743,3.344,3.089,4.623   c1.341,1.274,2.98,2.237,4.721,2.85c1.197,0.421,2.443,0.704,3.7,0.869c0.304,0.04,0.607,0.082,0.913,0.11   c0.246,0.024,0.23,0.021,0.223,0.268c-0.007,0.203-0.081,1.989-0.121,2.679c-3.811,0.081-7.746-0.732-10.941-2.891   c-3.041-2.055-5.145-5.196-6.395-8.606c-0.634-1.729-1.063-3.776-1.338-5.596c-0.294-1.941-0.353-4.07,0.21-6.07H5.279   c0.556,3,0.748,4.183,1.047,6.172c0.287,1.915,0.723,3.928,1.37,5.755c1.198,3.383,3.141,6.573,5.939,8.858   c2.03,1.658,4.41,2.857,6.929,3.564c1.369,0.385,2.773,0.653,4.187,0.808c0.349,0.038,0.696,0.079,1.045,0.106   c-0.029,0.371-0.209,2.54-0.299,3.248c-3.824,0.026-7.621-0.627-11.108-2.235c-3.41-1.571-6.251-4.117-8.285-7.268   c-1.663-2.575-2.777-5.697-3.492-8.669c-0.79-3.281-1.274-6.339-0.482-10.339h-2.2c0.46,3,0.716,4.259,0.979,6.28   c0.258,1.973,0.621,4.052,1.167,5.966c1.001,3.507,2.573,6.931,4.895,9.761c2.16,2.637,4.932,4.735,8.038,6.127   c3.226,1.447,6.726,2.172,10.236,2.444c-0.114,0.946-0.511,4.531-0.971,5.126c-0.551,0.713-1.492,0.722-2.324,1.028   c-0.761,0.281-1.522,0.267-2.309,0.267h14.003c-0.772,0-1.522,0.027-2.271-0.248c-0.823-0.305-1.73-0.519-2.304-1.198   c-0.5-0.594-0.91-4.08-1.027-5.053c3.864-0.271,7.729-1.018,11.224-2.735c3.384-1.663,6.267-4.123,8.409-7.225   c1.886-2.728,3.155-6.066,3.983-9.266c0.943-3.63,1.068-7.275,1.913-11.275H51.367C51.798,18.001,51.367,16.001,51.367,16.001   C51.798,18.001,51.367,16.001,51.367,16.001z"/></g><g display="none"><path display="inline" d="M39.08,45.178l-0.114-0.176h7.742l-9.526-14h4.477L27.749,10.747l1.278,0.915l-0.413-2.365l1.742-1.694   L27.949,7.27l-1.083-2.245l-1.082,2.266l-2.407,0.364l1.741,1.751l-0.413,2.478l0.914-0.938L11.843,31.001h4.461l-9.511,14h7.722   l-0.094,0.153L2.09,58.001H23v7h6v-7h22.41L39.08,45.178z M41.467,40.249c0.657,0,1.189,0.533,1.189,1.19   c0,0.656-0.532,1.19-1.189,1.19s-1.189-0.534-1.189-1.19C40.277,40.781,40.81,40.249,41.467,40.249z M9.51,55.922   c-0.673,0-1.219-0.546-1.219-1.219c0-0.672,0.545-1.219,1.219-1.219s1.219,0.547,1.219,1.219   C10.729,55.376,10.183,55.922,9.51,55.922z M14.676,41.961c-0.641,0-1.161-0.52-1.161-1.161c0-0.642,0.52-1.161,1.161-1.161   c0.642,0,1.161,0.52,1.161,1.161C15.837,41.441,15.318,41.961,14.676,41.961z M22.629,19.814c0.737,0,1.335,0.599,1.335,1.336   s-0.598,1.335-1.335,1.335s-1.335-0.598-1.335-1.335S21.892,19.814,22.629,19.814z M22.112,54.22c-0.9,0-1.63-0.729-1.63-1.63   s0.73-1.631,1.63-1.631c0.901,0,1.631,0.73,1.631,1.631S23.013,54.22,22.112,54.22z M23.645,32.179   c-0.561,0-1.016-0.455-1.016-1.016c0-0.562,0.455-1.016,1.016-1.016c0.561,0,1.016,0.455,1.016,1.016   C24.661,31.724,24.206,32.179,23.645,32.179z M25.166,11.239l0.325-1.951L24.109,7.9l1.909-0.285l0.848-1.771l0.848,1.771   L29.623,7.9l-1.382,1.388l0.325,1.951l-1.7-0.92L25.166,11.239z M28.375,37.027c-0.576,0-1.044-0.468-1.044-1.044   c0-0.578,0.468-1.045,1.044-1.045c0.578,0,1.046,0.468,1.046,1.045C29.421,36.559,28.953,37.027,28.375,37.027z M29.29,19.786   c-0.697,0-1.263-0.565-1.263-1.262c0-0.698,0.565-1.263,1.263-1.263s1.263,0.565,1.263,1.263   C30.553,19.22,29.987,19.786,29.29,19.786z M33.397,48.782c-0.914,0-1.654-0.741-1.654-1.654c0-0.915,0.74-1.654,1.654-1.654   s1.654,0.74,1.654,1.654C35.052,48.042,34.312,48.782,33.397,48.782z M35.052,28.445c-0.802,0-1.451-0.649-1.451-1.451   c0-0.802,0.649-1.452,1.451-1.452s1.451,0.649,1.451,1.452C36.503,27.796,35.854,28.445,35.052,28.445z M40.277,54.965   c-0.674,0-1.221-0.546-1.221-1.219c0-0.674,0.547-1.219,1.221-1.219c0.673,0,1.218,0.545,1.218,1.219   C41.495,54.418,40.95,54.965,40.277,54.965z"/></g><g><path d="M26.129,1.502c0.125-0.253,0.329-0.252,0.454,0l1.153,2.339c0.125,0.252,0.455,0.493,0.734,0.533l2.583,0.376   c0.278,0.041,0.342,0.235,0.14,0.431l-1.869,1.821c-0.203,0.196-0.328,0.585-0.281,0.863l0.441,2.571   c0.048,0.278-0.117,0.398-0.367,0.267L26.81,9.489c-0.25-0.131-0.658-0.131-0.908,0l-2.309,1.214   c-0.25,0.131-0.415,0.011-0.367-0.267l0.441-2.571c0.048-0.278-0.079-0.667-0.28-0.863l-1.869-1.821   c-0.202-0.196-0.139-0.391,0.141-0.431l2.582-0.376c0.279-0.041,0.609-0.281,0.734-0.533L26.129,1.502z"/><g><path d="M39.269,47.204c-0.239-0.401-0.053-0.73,0.415-0.73h4.5c0.468,0,0.656-0.33,0.42-0.733L35.69,30.569    c-0.237-0.403-0.048-0.733,0.42-0.733h2.33c0.468,0,0.655-0.329,0.417-0.731l-5.69-9.604c-0.238-0.402-0.629-1.061-0.867-1.463    l-3.433-5.792c-0.238-0.402-0.772-0.91-1.187-1.127l-0.666-0.35c-0.414-0.218-1.092-0.218-1.506,0l-0.919,0.484    c-0.414,0.217-0.948,0.725-1.187,1.127l-3.353,5.659c-0.238,0.402-0.629,1.061-0.867,1.463l-5.69,9.604    c-0.238,0.402-0.051,0.731,0.417,0.731h2.328c0.468,0,0.657,0.33,0.42,0.733L7.747,45.74c-0.237,0.403-0.048,0.733,0.42,0.733h4.5    c0.468,0,0.654,0.329,0.415,0.73l-9.06,15.178c-0.24,0.401-0.053,0.73,0.415,0.73h17.714c0.468,0,0.851,0.383,0.851,0.851v4.188    c0,0.468,0.383,0.851,0.851,0.851h4.299c0.468,0,0.851-0.383,0.851-0.851v-4.188c0-0.468,0.383-0.851,0.851-0.851h18.064    c0.468,0,0.654-0.329,0.415-0.73L39.269,47.204z M13.917,55.732c-1.048,0-1.897-0.85-1.897-1.897c0-1.048,0.849-1.897,1.897-1.897    s1.897,0.85,1.897,1.897C15.814,54.883,14.965,55.732,13.917,55.732z M19.134,41.258c-1.31,0-2.371-1.062-2.371-2.371    s1.062-2.372,2.371-2.372c1.31,0,2.372,1.062,2.372,2.372S20.444,41.258,19.134,41.258z M22.527,23.555    c0-1.249,1.013-2.262,2.262-2.262c1.25,0,2.262,1.013,2.262,2.262s-1.013,2.262-2.262,2.262    C23.54,25.817,22.527,24.804,22.527,23.555z M25.395,55.294c-1.26,0-2.281-1.021-2.281-2.28c0-1.259,1.021-2.28,2.281-2.28    c1.259,0,2.279,1.021,2.279,2.28C27.674,54.273,26.653,55.294,25.395,55.294z M29.823,35.813c0-1.249,1.013-2.262,2.262-2.262    c1.25,0,2.262,1.013,2.262,2.262s-1.012,2.262-2.262,2.262C30.836,38.075,29.823,37.062,29.823,35.813z M35.113,50.26    c-1.027,0-1.86-0.833-1.86-1.86s0.833-1.861,1.86-1.861s1.86,0.833,1.86,1.861S36.141,50.26,35.113,50.26z"/></g></g><g display="none"><g display="inline"><g><path d="M27,26.001H12v-16h15V26.001z M13,25.001h13v-14H13V25.001z"/></g></g><g display="inline"><g><g><path d="M20.405,19.14c-1.842,0-3.341-1.499-3.341-3.341s1.499-3.341,3.341-3.341s3.341,1.499,3.341,3.341      S22.247,19.14,20.405,19.14z M20.405,13.024c-1.53,0-2.774,1.245-2.774,2.775s1.245,2.774,2.774,2.774s2.775-1.245,2.775-2.774      S21.935,13.024,20.405,13.024z"/></g></g><g><g><path d="M26.866,26.001H13.927l0.008-0.508c0.001-0.064,0.178-6.461,6.47-6.461c1.945,0,3.502,0.581,4.629,1.726      c1.866,1.896,1.843,4.637,1.841,4.752L26.866,26.001z M14.977,25.001h10.868c-0.082-0.796-0.388-2.392-1.529-3.549      c-0.931-0.943-2.247-1.421-3.911-1.421C16.015,20.032,15.147,23.636,14.977,25.001z"/></g></g></g><g display="inline"><g><rect x="30" y="12.001" width="14" height="2"/></g></g><g display="inline"><g><rect x="30" y="17.001" width="10" height="2"/></g></g><g display="inline"><g><rect x="12" y="32.001" width="5" height="2"/></g></g><g display="inline"><g><rect x="12" y="38.001" width="5" height="2"/></g></g><g display="inline"><g><rect x="12" y="44.001" width="5" height="2"/></g></g><g display="inline"><g><rect x="20" y="32.001" width="15" height="2"/></g></g><g display="inline"><g><rect x="20" y="38.001" width="20" height="2"/></g></g><g display="inline"><g><rect x="20" y="44.001" width="11" height="2"/></g></g><line display="inline" fill="none" x1="4" y1="22.001" x2="4" y2="22.001"/><line display="inline" fill="none" x1="4" y1="20.001" x2="4" y2="20.001"/><line display="inline" fill="none" x1="3" y1="20.001" x2="2" y2="20.001"/><line display="inline" fill="none" x1="2" y1="22.001" x2="3" y2="22.001"/><path display="inline" d="M3,9.001H1v4h3.938l0,0H8v-4H3 M5,10.001h2v2H2l0,0l0,0v-2h1.625H5"/><path display="inline" d="M4.938,23.001H8v-4H1v4H4.938L4.938,23.001z M2,20.001h5v2H2"/><path display="inline" d="M4.938,33.001H8v-4H1v4H4.938L4.938,33.001z M2,32.001v-2h5v2H2L2,32.001L2,32.001z"/><path display="inline" d="M4.938,43.001H8v-4H1v4H4.938L4.938,43.001z M2,42.001v-2h5v2H2L2,42.001L2,42.001z"/><path display="inline" d="M4.938,53.001H8v-4H1v4H4.938L4.938,53.001z M2,52.001v-2h5v2H2L2,52.001L2,52.001z"/><line display="inline" fill="none" stroke="#000000" stroke-miterlimit="10" x1="6.5" y1="20.001" x2="6.5" y2="13.001"/><line display="inline" fill="none" stroke="#000000" stroke-miterlimit="10" x1="6.5" y1="29.001" x2="6.5" y2="23.001"/><line display="inline" fill="none" stroke="#000000" stroke-miterlimit="10" x1="6.5" y1="39.001" x2="6.5" y2="33.001"/><line display="inline" fill="none" stroke="#000000" stroke-miterlimit="10" x1="6.5" y1="50.001" x2="6.5" y2="42.001"/><polyline display="inline" fill="none" stroke="#000000" stroke-miterlimit="10" points="6.5,9.001 6.5,2.501 50.5,2.501    50.5,60.501 6.5,60.501 6.5,53.001  "/><polyline display="inline" fill="none" stroke="#000000" stroke-miterlimit="10" points="2.5,53.001 2.5,60.501 6,60.501  "/><line display="inline" fill="none" stroke="#000000" stroke-miterlimit="10" x1="2.5" y1="43.001" x2="2.5" y2="49.001"/><line display="inline" fill="none" stroke="#000000" stroke-miterlimit="10" x1="2.5" y1="32.001" x2="2.5" y2="39.001"/><line display="inline" fill="none" stroke="#000000" stroke-miterlimit="10" x1="2.5" y1="23.001" x2="2.5" y2="29.001"/><line display="inline" fill="none" stroke="#000000" stroke-miterlimit="10" x1="2.5" y1="13.001" x2="2.5" y2="19.001"/><polyline display="inline" fill="none" stroke="#000000" stroke-miterlimit="10" points="6,2.501 2.5,2.501 2.5,9.001  "/><polyline display="inline" fill="none" stroke="#000000" stroke-miterlimit="10" points="4.5,53.001 4.5,60.501 8,60.501  "/><line display="inline" fill="none" stroke="#000000" stroke-miterlimit="10" x1="4.5" y1="43.001" x2="4.5" y2="49.001"/><line display="inline" fill="none" stroke="#000000" stroke-miterlimit="10" x1="4.5" y1="32.001" x2="4.5" y2="39.001"/><line display="inline" fill="none" stroke="#000000" stroke-miterlimit="10" x1="4.5" y1="23.001" x2="4.5" y2="29.001"/><line display="inline" fill="none" stroke="#000000" stroke-miterlimit="10" x1="4.5" y1="13.001" x2="4.5" y2="19.001"/><polyline display="inline" fill="none" stroke="#000000" stroke-miterlimit="10" points="8,2.501 4.5,2.501 4.5,9.001  "/></g><text x="0" y="86.001" fill="#000000" font-size="5px" font-weight="bold" font-family="'Helvetica Neue', Helvetica, Arial-Unicode, Arial, Sans-serif">Created by Irit Barzily</text><text x="0" y="91.001" fill="#000000" font-size="5px" font-weight="bold" font-family="'Helvetica Neue', Helvetica, Arial-Unicode, Arial, Sans-serif">from the Noun Project</text></svg>