<svg xmlns="http://www.w3.org/2000/svg" viewBox="0 0 64 80" x="0px" y="0px"><title>house-christmas-cabin-home-winter</title><g><circle cx="38" cy="46" r="1"/><path d="M33,41V56H43V41Zm5,8a3,3,0,1,1,3-3A3,3,0,0,1,38,49Z"/><polygon points="32 58 29 58 29 60 47 60 47 58 44 58 32 58"/><rect x="9" y="55" width="2" height="5"/><rect x="20" y="44" width="2" height="2"/><path d="M54.829,33.56a6,6,0,0,0-1.269-8.389l-19-14a6.09,6.09,0,0,0-7.118,0l-19,14a5.992,5.992,0,0,0,.82,10.166,1.056,1.056,0,0,1,1.632.219l.183.366A5.905,5.905,0,0,0,12,36a5.97,5.97,0,0,0,3.56-1.171l2.44-1.8V33h.043L31,23.453,46.438,34.828A5.956,5.956,0,0,0,50,36,6.02,6.02,0,0,0,54.829,33.56Z"/><path d="M43.3,35H18.7l-1.953,1.439A7.953,7.953,0,0,1,15,37.391v9.171a.963.963,0,0,1-.039.2l.926,1.782A1,1,0,0,1,15,50h-.523l1.452,3.629A1,1,0,0,1,15,55v5H27V57a1,1,0,0,1,1-1h3V40a1,1,0,0,1,1-1H44a1,1,0,0,1,1,1V56h2V37.392a7.978,7.978,0,0,1-1.749-.954ZM28,47a1,1,0,0,1-1,1H19a1,1,0,0,1-1-1V39a1,1,0,0,1,1-1h8a1,1,0,0,1,1,1Z"/><polygon points="21.414 33 40.585 33 31 25.938 21.414 33"/><rect x="20" y="40" width="2" height="2"/><rect x="24" y="44" width="2" height="2"/><rect x="24" y="40" width="2" height="2"/><path d="M17,12a3,3,0,1,0-3-3A3,3,0,0,0,17,12Z"/><path d="M60,6a3,3,0,1,0-3,3A3,3,0,0,0,60,6Z"/><path d="M52,18a3,3,0,1,0-3-3A3,3,0,0,0,52,18Z"/><path d="M39,6a3,3,0,1,0,3-3A3,3,0,0,0,39,6Z"/><path d="M11,5A3,3,0,1,0,8,8,3,3,0,0,0,11,5Z"/><path d="M6,20a3,3,0,1,0-3-3A3,3,0,0,0,6,20Z"/><polygon points="59 55 57.182 50 58 50 56.286 46 57 46 55 41.167 53 46 53.714 46 52 50 52.818 50 51 55 59 55"/><rect x="54" y="57" width="2" height="3"/><polygon points="14 53 12.028 47.578 12.916 47.578 11.057 43.241 11.831 43.241 9.663 38 7.494 43.241 8.269 43.241 6.41 47.578 7.297 47.578 5.325 53 14 53"/></g><text x="0" y="79" fill="#000000" font-size="5px" font-weight="bold" font-family="'Helvetica Neue', Helvetica, Arial-Unicode, Arial, Sans-serif">Created by supalerk laipawat</text><text x="0" y="84" fill="#000000" font-size="5px" font-weight="bold" font-family="'Helvetica Neue', Helvetica, Arial-Unicode, Arial, Sans-serif">from the Noun Project</text></svg>