<svg xmlns="http://www.w3.org/2000/svg" xmlns:xlink="http://www.w3.org/1999/xlink" version="1.1" x="0px" y="0px" viewBox="0 0 50 62.5" style="enable-background:new 0 0 50 50;" xml:space="preserve"><path d="M42.3164063,32.9418945c-0.4677734-0.7275391-1.2192383-1.3012695-1.6225586-1.3291016  c-0.3549805,0.0064087-0.8583984,0.1015015-1.5103149,0.2444458c-0.4134521-0.4675903-0.7640991-0.9786377-1.015564-1.5418091  c-0.0561523-0.1259766-0.206543-0.2602539-0.3364258-0.3056641c-0.0864258-0.0302734-0.2412109-0.0854492-0.6821289,0.0463867  c0.3740234-0.7919922,0.5463867-1.3276367,0.5151367-1.5981445c-0.1416016-1.2133789,0.0302734-2.559082,0.5112305-3.9990234  c0.4418945-1.3212891,0.8178711-2.5932617,1.1176758-3.7797852c0.0214844-0.0844727,0.0771484-0.3017578-0.1699219-0.753418  c0.2802734-0.1943359,0.4448242-0.3989258,0.4912109-0.6123047c0.390625-1.8066406,0.605957-3.4663086,0.6401367-4.9321289  c0.0043945-0.2016602-0.0786133-0.3847656-0.2338867-0.5161133c-0.1435547-0.1220703-0.3476563-0.184082-0.574707-0.2080078  c0.7421875-1.2773438,0.6962891-1.6005859,0.6796875-1.7197266c-0.159668-1.1352539-0.46875-2.1494141-0.9179688-3.0146484  c-0.7158203-1.3789063-1.3603516-2.0957031-2.1547852-2.3969727c-0.6240234-0.2373047-1.371582-0.2583008-2.3544922-0.0673828  c-0.3500977,0.0683594-0.71875,0.1635742-1.1474609,0.2744141c-1.4248047,0.3701172-3.578125,0.9287109-8.1279297,1.1855469  c-4.9643555,0.2753906-11.2124023-0.7402344-11.2749023-0.75l-0.0056152,0.0338135  c-0.4628906-0.1601563-0.9832153-0.2599487-1.5852051-0.2872314c-1.5390625-0.0629883-2.3823242,0.6464844-2.8286133,1.2592773  C9.5717773,8.3911133,9.5766602,8.6367188,9.7661133,8.9633789C9.3496094,9.0327148,9.203125,9.1933594,9.1386719,9.4199219  c-0.1572266,0.5522461-0.1845703,1.0307617-0.1870117,1.2670898c-0.0014648,0.1655273,0.0146484,1.6523438,1.0288086,2.7680664  c0.1958008,0.215332,0.4179688,0.4042969,0.659668,0.5615234c0.2133789,0.1391602,0.4458008,0.2563477,0.6918945,0.3486328  c0.5505981,0.2064209,1.1845703,0.2984009,1.8852539,0.2692871v0.0007324c0,0,1.7280273-0.0480957,2.9038696-0.0943604  c0.0334473,1.796936-0.0740967,4.8554077-0.9302368,8.1148682c-0.1293945,0.4946289-0.4355469,1.465332-0.4365234,1.4672852  c-0.0551758,0.1757813-0.0092773,0.3676758,0.1191406,0.4995117l0.2246094,0.2299805  c-0.3881836,0.2006836-0.7592773,0.4711914-0.8696289,0.8046875c-1.3632813,4.1157227-2.0209961,7.5532227-1.9550781,10.2177734  c0.0053711,0.2001953,0.09375,0.3823242,0.25,0.5126953c0.1293945,0.1083984,0.2988281,0.1708984,0.4794922,0.2041016  c-0.5532227,1.1411133-0.4868164,1.4243164-0.4589844,1.5424805c0.3276367,1.3969727,0.7612305,2.0166016,1.3994141,2.6142578  c0.121582,0.1142578,0.2255859,0.2138672,1.2392578,0.1264648c-0.2695313,0.2041016-0.2670898,0.3134766-0.2631836,0.4755859  c0.0043945,0.1943359,0.128418,0.3774414,0.3066406,0.4550781c0.3227539,0.1411133,0.6650391,0.2348633,0.9892578,0.2714844  c0.222168,0.0249023,0.4375,0.0371094,0.6459961,0.0371094c0.699707,0,1.3151855-0.1520996,1.8560181-0.4301758  c0.0418091-0.0115967,3.5435791-0.9851685,7.6580811-1.723999c0.3535156,3.1358032,0.2998657,7.3436279,0.2993774,7.3880615  c-0.0014648,0.1074219,0.065918,0.2036133,0.1669922,0.2392578c0.0273438,0.0097656,0.0551758,0.0141602,0.0830078,0.0141602  c0.0756836,0,0.1489258-0.0341797,0.1972656-0.0961914l2.152832-2.7583008l1.640625,2.1762695  c0.0605469,0.0800781,0.1640625,0.1157227,0.2583008,0.0927734c0.097168-0.0234375,0.1708984-0.1025391,0.1879883-0.2006836  c0.0021973-0.0145874,0.2327271-1.3719482,0.3485718-3.1052856c1.4629517,1.3891602,2.7979126,2.4026489,2.9038696,2.4822388  c0.0444336,0.0332031,0.097168,0.050293,0.1503906,0.050293c0.0415039,0,0.0830078-0.0102539,0.1206055-0.0307617  c0.0859375-0.0473633,0.1362305-0.1411133,0.128418-0.2392578l-0.2163086-2.699707l3.8408203,0.7617188  c0.1108398,0.0234375,0.2192383-0.03125,0.2705078-0.1298828s0.03125-0.2197266-0.0493164-0.2963867  c-0.0255127-0.0241699-2.3657227-2.2619019-4.2354736-4.5576782c1.2357788-0.0529175,2.1720581-0.0581055,2.5601807-0.0443726  c1.3681641,0.0532227,1.9365234,0.0585938,2.3007813,0.0620117c0.3535156,0.0029297,0.5058594,0.0043945,1.0507813,0.050293  c0.3496094,0.0209961,0.5541992-0.1708984,0.8227539-0.4384766c0.0952148-0.0952148,0.1547852-0.2436523,0.1533203-0.3779297  c-0.0004883-0.0395508-0.0009766-0.0830078-0.015625-0.1391602c0.4287109-0.0805664,0.5014648-0.1694336,0.5771484-0.2617188  l0.0727539-0.0869141c0.0800781-0.0927734,0.1625977-0.1889648,0.2392578-0.3491211  C43.3857422,35.3725586,42.9003906,33.8505859,42.3164063,32.9418945z M16.2952881,13.5332031  c-0.4337769,0.0180664-0.975708,0.0368042-1.4886475,0.0533447c0.3622437-0.6228638,0.5233154-1.4558716,0.4233398-2.3804932  c-0.0639648-0.5924683-0.2352905-1.0789185-0.4855957-1.4626465c0.2296143-0.0016479,0.4413452-0.0012207,0.6081543-0.0012207  l0.074707,0.000061c0.0187988,0.0441895,0.0406494,0.0823364,0.0585938,0.1283569  c0.2119141,0.5424805,0.3911133,1.4160156,0.5039063,2.4584961c0.0141602,0.1318359,0.1030273,0.2895508,0.206543,0.3730469  c0.0820313,0.065918,0.206543,0.1665039,0.7421875,0.1860352C16.6133423,13.1663208,16.4163208,13.3731689,16.2952881,13.5332031z   M13.1386719,9.8530273c0.2143555,0,0.3930664,0.0551758,0.5415039,0.1660156  c0.265625,0.1987305,0.453125,0.597168,0.534668,1.1323242c-0.6655273,0.0092773-1.331543,0.2363281-1.7758789,0.4262695  c-0.1489258-0.4760742-0.2412109-1.0571289-0.0688477-1.3901367c0.0482178-0.0928955,0.1502686-0.2156372,0.4052734-0.2832031  l0.0009766,0.0024414c0.0272827-0.0108032,0.0690308-0.0189209,0.1036987-0.0283203  C12.9709473,9.862793,13.0579224,9.8530273,13.1386719,9.8530273z M11.6831055,13.4291992  c-0.1772461-0.0668945-0.3447266-0.1513672-0.4975586-0.2504883c-0.1704102-0.1113281-0.3271484-0.2446289-0.465332-0.3964844  c-0.6152344-0.6767578-0.7724609-1.6298828-0.7685547-2.0859375c0.0014648-0.1499023,0.0161133-0.425293,0.0874023-0.7573242  c0.1845703-0.0126953,0.4731445-0.0141602,0.7368164,0.0019531c0.2163086,0.012207,0.4003906-0.1044922,0.4858398-0.2924805  c0.0854492-0.1889648,0.0454102-0.4106445-0.1000977-0.5581055c-0.171875-0.1738281-0.3515625-0.3813477-0.4604492-0.5273438  c0.4350586-0.4716797,1.0356445-0.6787109,1.8115234-0.6489258c1.0302124,0.0465698,1.7513428,0.3029785,2.2734985,0.8295288  c-0.8042603,0.00354-1.5219116,0.0363159-2.02771,0.1453247c-0.026062,0.0039063-0.0505371,0.0023804-0.0768433,0.0070801  c-0.0876465,0.0159302-0.1535645,0.0465698-0.2301636,0.0701904c-0.012146,0.0044556-0.0316162,0.0062256-0.0432739,0.0108643  l0.0007935,0.0020752c-0.5105591,0.1699219-0.7914429,0.4865112-0.9275513,0.7503662  c-0.5375977,1.0415039,0.1518555,2.5756836,0.2324219,2.7470703c0.059082,0.1254883,0.1674805,0.2211914,0.2993164,0.2636719  c0.1333008,0.0429688,0.2768555,0.027832,0.3974609-0.0395508c0.3081055-0.1723633,1.1381836-0.5449219,1.8310547-0.550293  c-0.050293,0.4804688-0.2001953,0.8842773-0.4375,1.1591797c-0.1787109,0.2075195-0.387207,0.3168945-0.6206055,0.3261719  C12.6157227,13.6577148,12.109375,13.5888672,11.6831055,13.4291992z M16.7724609,41.112793  c0.3862305-0.2021484,0.8325195-0.4287109,1.2441406-0.6318359c0.2211914-0.1088867,0.3295898-0.362793,0.2558594-0.5976563  c-0.0732422-0.2353516-0.3056641-0.3769531-0.5517578-0.3452148c-1.2573242,0.1899414-2.7495117,0.3745117-3.2026367,0.3759766  c-0.4575195-0.453125-0.746582-0.9228516-0.9921875-1.9335938c0.019043-0.2104492,0.3979492-1.0253906,0.7397461-1.6542969  c0.0908203-0.1665039,0.0791016-0.3701172-0.0297852-0.5253906s-0.296875-0.2353516-0.484375-0.2075195  c-0.1591797,0.0239258-0.3505859,0.0322266-0.4819336,0.0244141c-0.0205078-2.5170898,0.6206055-5.7592773,1.8911133-9.6088867  c0.0854492-0.1191406,0.5478516-0.3623047,0.9702148-0.5097656c0.1616211-0.0561523,0.2832031-0.190918,0.3222656-0.3574219  c0.0395508-0.1665039-0.0092773-0.3417969-0.128418-0.4638672l-0.5273438-0.5400391  c0.1040039-0.3359375,0.2724609-0.8901367,0.3608398-1.2280273c0.9536133-3.6313477,1.0112305-7.0327148,0.9536133-8.8061523  c0.2084961-0.2597656,1.0200195-0.9082031,1.7124023-1.3994141c0.1860352-0.1313477,0.2592773-0.3720703,0.1782227-0.5849609  c-0.0810547-0.2138672-0.3037109-0.3461914-0.5214844-0.3198242c-0.5380859,0.0585938-1.1855469,0.0981445-1.5361328,0.0888672  c-0.1240234-0.9936523-0.3051758-1.8125-0.5273438-2.3813477c-0.1627808-0.4170532-0.3582153-0.7784424-0.5884399-1.0899658  c2.2714233,0.2913818,6.2474365,0.6965942,9.6509399,0.4996338c4.6484375-0.262207,6.859375-0.8359375,8.3227539-1.215332  c0.40625-0.1054688,0.7553711-0.1962891,1.0869141-0.2612305c0.7915039-0.1547852,1.3666992-0.1474609,1.809082,0.0205078  c0.5371094,0.2036133,1.0371094,0.796875,1.621582,1.9233398c0.3969727,0.7641602,0.6713867,1.6704102,0.8134766,2.6328125  c-0.034668,0.2407227-0.565918,1.1938477-1.0405273,1.9326172c-0.1079102,0.1679688-0.1054688,0.3842773,0.0063477,0.5498047  s0.3120117,0.2495117,0.5078125,0.2114258c0.2128906-0.0405273,0.4311523-0.0664063,0.6386719-0.0634766  c-0.0517578,1.3105469-0.2509766,2.7817383-0.5922852,4.3789063c-0.0820313,0.0717773-0.2832031,0.1938477-0.4545898,0.2734375  c-0.137207,0.0639648-0.2382813,0.1870117-0.2744141,0.3339844c-0.0361328,0.1474609-0.0039063,0.3027344,0.0878906,0.4233398  c0.1176758,0.1538086,0.2441406,0.3574219,0.2895508,0.4628906c-0.2900391,1.1386719-0.6518555,2.3569336-1.074707,3.6225586  c-0.5283203,1.5805664-0.715332,3.0717773-0.5576172,4.3974609c-0.0209961,0.2631836-0.5546875,1.3969727-1.0400391,2.2910156  c-0.1049805,0.1933594-0.0712891,0.4321289,0.0825195,0.5888672c0.1542969,0.1567383,0.3916016,0.1933594,0.5874023,0.09375  c0.3964844-0.2055664,0.8339844-0.3979492,1.0986328-0.487793c0.192749,0.3811035,0.4302979,0.7365723,0.6895142,1.0783081  c-1.6703491,0.3788452-3.887146,0.8610229-6.6109009,1.0999146c-3.6044922,0.315918-7.8310547-0.1298828-10.918457-0.4550781  c-1.0708008-0.1132813-2.0048828-0.2114258-2.7304688-0.2592773l-0.0001221,0.0021973  c-1.2374878-0.1672974-2.7061157,0.5169678-3.0233154,2.1467285c-0.0195313,0.0996094-0.0673828,0.3466797,0.2617188,0.730957  c-0.3408203,0.2480469-0.3974609,0.4477539-0.3930664,0.6289063c0.0415039,1.7797852,1.0893555,2.2080078,1.5380859,2.3095703  c0.0400391,0.0090332,0.0825195,0.0029297,0.1233521,0.0093994c0.980835,0.4515991,2.3782349,0.5787354,3.3823853,0.5799561  c-0.2097778,0.6611938-0.5180664,1.1810303-0.9276123,1.5493164C18.2788086,40.9047852,17.6147461,41.121582,16.7724609,41.112793z   M19.9393311,37.8955078c-0.5262451,0.0106201-1.2401123-0.0175171-1.9255981-0.1299438  c0.0353394-0.0373535,0.0808105-0.0665283,0.1122437-0.1068726c0.1894531-0.0478516,0.6459961-0.1069336,1.0688477-0.1362305  c0.2192383-0.015625,0.4023438-0.171875,0.4521484-0.3857422s-0.0458984-0.4355469-0.2358398-0.5454102  c-0.4179688-0.2431641-0.8540039-0.5327148-1.0068359-0.6665039c-0.0205078-0.0878906-0.043457-0.1728516-0.0688477-0.2543945  c0.4931641,0.0380859,1.1108398,0.0429688,1.6591797-0.0751953c0.0317383,0.2167969,0.0493164,0.4560547,0.0507813,0.7202148  C20.0485229,36.8952637,20.0100708,37.4180298,19.9393311,37.8955078z M16.2133789,35.0551758  c-0.1518555-0.1098633-0.3173828-0.2578125-0.3989258-0.3520508c0.2758789-1.0634766,1.2719727-1.3188477,1.9057617-1.2207031  c0.7949219,0.121582,1.5512695,0.3686523,1.9750977,1.1533203c-0.6411133,0.1118164-1.5361328,0.0380859-2.0693359-0.0600586  C17.4345703,34.5400391,17.2373047,34.6206055,17.125,34.78125c-0.1118164,0.1611328-0.1201172,0.3725586-0.0200195,0.5410156  c0.0024414,0.0043945,0.2495117,0.4296875,0.3417969,0.9072266c0.0205078,0.105957,0.0458984,0.234375,0.3442383,0.4858398  c-0.2983398,0.0913086-0.3642578,0.1933594-0.421875,0.2836914c-0.0830078,0.1289063-0.2172852,0.2275391-0.409668,0.3017578  c-0.1186523,0.0463867-0.3193359,0.0786133-0.527832,0.03125c-0.5366211-0.1210938-0.7084961-0.6694336-0.7490234-1.1723633  c0.109375-0.0722656,0.2880859-0.1708984,0.4487305-0.2460938c0.1606445-0.074707,0.2695313-0.2290039,0.2866211-0.4052734  C16.4345703,35.331543,16.3569336,35.1591797,16.2133789,35.0551758z M30.9575195,46.1484375l-1.4794922-1.9624023  c-0.046875-0.0620117-0.1201172-0.0991211-0.1977539-0.0996094c-0.0004883,0-0.0014648,0-0.0019531,0  c-0.0771484,0-0.1499023,0.0356445-0.1972656,0.0961914l-1.902832,2.4379883  c-0.0009155-1.3652344-0.0404663-4.3623657-0.3122559-6.7483521c0.4904175-0.0847168,0.9885864-0.1637573,1.4883423-0.2386475  c0.6550903,1.2304688,1.7681885,2.5142212,2.8829956,3.6185913C31.1733398,44.4563599,31.0449829,45.524231,30.9575195,46.1484375z   M37.9130859,43.3813477l-3.3422852-0.6630859c-0.0795898-0.0161133-0.1572266,0.0058594-0.2148438,0.0585938  c-0.0585938,0.0517578-0.0893555,0.128418-0.0830078,0.206543l0.1967773,2.4609375  c-1.1588135-0.9263916-4.2471313-3.5361328-5.5739136-5.8901367c1.8024902-0.2519531,3.6223145-0.3967896,5.1121826-0.4743652  C35.3654785,40.7868042,37.0357056,42.5072021,37.9130859,43.3813477z M41.4829102,37.0336914  c-0.0180664,0.0380859-0.0297852,0.0532227-0.0957031,0.1293945l-0.0014648,0.0019531  c-0.1640625,0.034668-0.5239258,0.081543-0.8564453,0.1098633c-0.1958008,0.0166016-0.3637695,0.1459961-0.4291992,0.3310547  c-0.0585938,0.1660156-0.0253906,0.3491211,0.0839844,0.4829102c-0.2680664-0.0170898-0.4272461-0.0180664-0.6904297-0.0205078  c-0.3588867-0.003418-0.9204102-0.0087891-2.2705078-0.0610352c-0.9223633-0.0336914-4.8422852,0.0366211-8.6240234,0.5776367  c-3.2733154,0.4689941-6.4921265,1.2068481-8.4005737,1.6811523c0.569397-0.9667969,0.8557739-2.2885742,0.8468628-3.9555664  c-0.0054932-1.0994873-0.2612915-1.9564819-0.7668457-2.5862427c0.0596313,0.0062866,0.1149902,0.0119629,0.1755371,0.0183716  c3.1274414,0.3291016,7.4111328,0.7822266,11.1098633,0.4570313c2.9633789-0.2597656,5.4296875-0.8208008,7.0620117-1.1923828  c0.8857422-0.2016602,1.5986328-0.3637695,2.0014648-0.390625c0.1918945,0.1098633,0.7998047,0.5683594,1.1274414,1.4155273  C42.1000977,34.9248047,42.0087891,35.9345703,41.4829102,37.0336914z"/><text x="0" y="65" fill="#000000" font-size="5px" font-weight="bold" font-family="'Helvetica Neue', Helvetica, Arial-Unicode, Arial, Sans-serif">Created by ATOM</text><text x="0" y="70" fill="#000000" font-size="5px" font-weight="bold" font-family="'Helvetica Neue', Helvetica, Arial-Unicode, Arial, Sans-serif">from the Noun Project</text></svg>