<svg xmlns="http://www.w3.org/2000/svg" xmlns:xlink="http://www.w3.org/1999/xlink" version="1.1" x="0px" y="0px" viewBox="0 0 66 82.5" enable-background="new 0 0 66 66" xml:space="preserve"><g><path d="M50.442,32.58c2.3-4.416,2.198-9.479-0.261-12.899c-4.409-6.136-14.338-5.16-17.043,2.548   c-1.768-3.57-5.961-6.043-10.037-5.88c-0.008-0.051-0.02-0.103-0.059-0.142c-0.098-0.098-0.256-0.098-0.354,0l-0.184,0.184   c-0.194,0.02-0.388,0.039-0.58,0.072c-4.851,0.831-8.667,5.682-8.334,10.593c0.169,2.479,1.259,4.757,2.19,6.464   c0.175,0.322,0.364,0.631,0.553,0.941l-0.03,0.03c-0.098,0.098-0.098,0.256,0,0.354c0.108,0.108,0.19,0.076,0.284,0.029   c3.755,5.856,9.868,9.438,15.309,12.622c0.078,0.046,0.165,0.068,0.252,0.068c0.08,0,0.161-0.02,0.234-0.059   c3.073-1.627,6.074-3.472,8.919-5.483C44.415,39.817,48.268,36.753,50.442,32.58z M18.034,19.369l0.481,0.481l-2.621,2.621   l-0.226-0.226C16.262,21.146,17.074,20.165,18.034,19.369z M14.694,27.882l0.51-0.51l1.718,1.718l-1.457,1.457   C15.13,29.709,14.847,28.813,14.694,27.882z M14.618,27.251c-0.009-0.089-0.024-0.176-0.03-0.264   c-0.005-0.078-0.001-0.156-0.004-0.234l0.266,0.266L14.618,27.251z M14.638,26.099c-0.015-0.015-0.038-0.013-0.056-0.023   c0.031-0.682,0.153-1.355,0.344-2.01c0.049-0.009,0.099-0.019,0.136-0.057l0.832-0.832l1.399,1.399l-2.09,2.089L14.638,26.099z    M15.264,23.101c0.054-0.129,0.113-0.255,0.173-0.382l0.105,0.105L15.264,23.101z M16.658,33.04   c-0.106-0.195-0.215-0.399-0.324-0.609l0.982,0.982c0.012,0.012,0.03,0.009,0.044,0.018l-0.298,0.298   C16.926,33.501,16.786,33.277,16.658,33.04z M32.16,46.49c-5.577-3.264-11.296-6.662-14.837-12.314l3.344-3.344   c0.098-0.098,0.098-0.256,0-0.354s-0.256-0.098-0.354,0l-2.626,2.626c-0.009-0.014-0.006-0.032-0.018-0.044l-1.988-1.988   c-0.004-0.008-0.007-0.016-0.011-0.024l3.491-3.491c0.098-0.098,0.098-0.256,0-0.354s-0.256-0.098-0.354,0l-1.533,1.533   l-1.718-1.718l2.09-2.089l0.154,0.154c0.098,0.098,0.256,0.098,0.354,0c0.098-0.098,0.098-0.256,0-0.354l-0.154-0.154l0.572-0.572   c0.098-0.098,0.098-0.256,0-0.354s-0.256-0.098-0.354,0l-0.572,0.572l-1.399-1.399l2.621-2.621l0.709,0.709l-0.62,0.62   c-0.098,0.098-0.098,0.256,0,0.354c0.098,0.098,0.256,0.098,0.354,0l0.62-0.62l0.819,0.819c0.098,0.098,0.256,0.098,0.354,0   c0.098-0.098,0.098-0.256,0-0.354l-0.819-0.819l1.684-1.684c0.098-0.098,0.098-0.256,0-0.354s-0.256-0.098-0.354,0l-1.684,1.684   l-0.877-0.877c-0.003-0.003-0.002-0.009-0.005-0.012s-0.008-0.002-0.012-0.005l-0.611-0.611c0.772-0.574,1.63-1.021,2.543-1.317   l0.102,0.102c-0.078,0.098-0.081,0.238,0.01,0.329c0.084,0.084,0.208,0.107,0.329,0.01l1.382,1.382   c0.098,0.098,0.256,0.098,0.354,0c0.098-0.098,0.098-0.256,0-0.354l-1.375-1.375l0.391-0.391c0.723-0.118,1.235-0.118,1.828-0.081   l0.42,0.419l-0.779,0.779c-0.098,0.098-0.098,0.256,0,0.354c0.098,0.098,0.256,0.098,0.354,0l0.779-0.779l0.686,0.686   c0.098,0.098,0.256,0.098,0.354,0c0.098-0.098,0.098-0.256,0-0.354l-0.686-0.686l0.23-0.23c3.388,0.724,6.522,3.278,7.406,6.449   c0.063,0.227,0.252,0.401,0.509,0.365c0.234-0.013,0.428-0.188,0.466-0.419c1.234-7.593,11.151-9.93,15.641-3.68   c2.24,3.116,2.313,7.77,0.186,11.853c-2.075,3.984-5.81,6.949-8.832,9.087C37.989,43.137,35.109,44.914,32.16,46.49z"/><path d="M47.267,7.138C18.648-4.934-2.762,13.495,1.525,33.544c1.194,5.554,4.475,10.634,9.497,14.712   c-0.858,2.845-1.696,7.155-2.01,11.496c-0.177,2.697,1.304,3.483,3.737,2.625c4.295-1.507,8.351-3.959,11.748-7.099   c12.8,3.834,24.47,0.833,32.299-6.389c0.135-0.039,0.119-0.037,0.156-0.152c1.581-1.481,2.98-3.126,4.137-4.92   c5.268-8.177,5.244-19.097-0.059-26.555C58.107,13.154,53.606,9.842,47.267,7.138z M33.112,55.868   c-0.011-0.039-0.016-0.081-0.047-0.112l-2.184-2.184l3.648-3.648c0.098-0.098,0.098-0.256,0-0.354s-0.256-0.098-0.354,0   l-3.648,3.648l-0.241-0.241c-0.098-0.098-0.256-0.098-0.354,0s-0.098,0.256,0,0.354l0.241,0.241l-1.284,1.284   c-0.098,0.098-0.098,0.256,0,0.354c0.098,0.098,0.256,0.098,0.354,0l1.284-1.285l1.889,1.888c-2.056-0.191-4.148-0.557-6.227-1.099   l0.894-0.894l1.201,1.201c0.098,0.098,0.256,0.098,0.354,0c0.098-0.098,0.098-0.256,0-0.354l-1.201-1.201l2.512-2.512   c0.098-0.098,0.098-0.256,0-0.354s-0.256-0.098-0.354,0l-2.512,2.512l-0.867-0.867c-0.098-0.098-0.256-0.098-0.354,0   s-0.098,0.256,0,0.354l0.867,0.867l-1.092,1.092c-0.375-0.104-0.751-0.205-1.125-0.32c-0.17-0.054-0.358-0.01-0.49,0.113   c-3.338,3.141-7.352,5.59-11.606,7.082c-2.113,0.744-2.51-0.056-2.409-1.612c0.337-4.659,1.28-9.118,2.067-11.591   c0.063-0.197-0.003-0.413-0.166-0.543c-4.989-3.968-8.242-8.932-9.408-14.354C-1.634,13.986,19.132-3.652,46.876,8.059   c6.163,2.628,10.526,5.829,13.338,9.784c2.009,2.826,3.211,6.176,3.632,9.676l-2.284,2.283c-0.098,0.098-0.098,0.256,0,0.354   c0.098,0.098,0.256,0.098,0.354,0l0.567-0.567c0.009,0.014,0.006,0.033,0.019,0.046l1.456,1.456   c0.011,0.011,0.028,0.008,0.041,0.017c-0.021,0.656-0.068,1.311-0.144,1.966c-0.009-0.048-0.018-0.096-0.055-0.133l-0.872-0.873   l0.355-0.355c0.098-0.098,0.098-0.256,0-0.354s-0.256-0.098-0.354,0l-0.531,0.531l-0.001,0c0,0,0,0.001,0,0.001l-1.67,1.67   c-0.098,0.098-0.098,0.256,0,0.354c0.098,0.098,0.256,0.098,0.354,0l1.494-1.494l0.872,0.873c0.098,0.098,0.256,0.098,0.354,0   c0.029-0.029,0.031-0.068,0.043-0.104c-0.215,1.793-0.624,3.573-1.242,5.296c-0.011-0.038-0.015-0.08-0.046-0.11l-0.984-0.985   l1.345-1.345c0.027,0.01,0.05,0.032,0.078,0.032c0.064,0,0.128-0.024,0.177-0.073c0.098-0.098,0.098-0.256,0-0.354l-0.103-0.103   c-0.002-0.002-0.001-0.004-0.002-0.006s-0.004-0.001-0.006-0.002l-1.144-1.144c-0.098-0.098-0.256-0.098-0.354,0   s-0.098,0.256,0,0.354l0.971,0.971l-1.316,1.316l-0.345-0.345c-0.098-0.098-0.256-0.098-0.354,0s-0.098,0.256,0,0.354l0.345,0.345   l-1.911,1.911c-0.063,0.063-0.07,0.148-0.052,0.229c-0.019,0.081-0.012,0.166,0.052,0.229l1.754,1.754l-1.577,1.577l-1.389-1.389   c-0.098-0.098-0.256-0.098-0.354,0s-0.098,0.256,0,0.354l1.389,1.389l-1.682,1.682l-1.316-1.317l1.397-1.396   c0.098-0.098,0.098-0.256,0-0.354s-0.256-0.098-0.354,0l-1.396,1.396l-0.397-0.397c-0.098-0.098-0.256-0.098-0.354,0   s-0.098,0.256,0,0.354l0.397,0.397l-1.421,1.421l-1.024-1.024c-0.098-0.098-0.256-0.098-0.354,0s-0.098,0.256,0,0.354l1.024,1.024   l-2.361,2.36l-0.952-0.951l1.813-1.813c0.098-0.098,0.098-0.256,0-0.354s-0.256-0.098-0.354,0l-1.813,1.813l-0.554-0.554   c-0.098-0.098-0.256-0.098-0.354,0s-0.098,0.256,0,0.354l0.554,0.554l-1.891,1.891l-1.546-1.546c-0.098-0.098-0.256-0.098-0.354,0   s-0.098,0.256,0,0.354l1.546,1.546l-2.674,2.674l-1.65-1.65c-0.098-0.098-0.256-0.098-0.354,0s-0.098,0.256,0,0.354l1.65,1.65   l-1.023,1.023c-0.098,0.098-0.098,0.256,0,0.354c0.098,0.098,0.256,0.098,0.354,0l1.023-1.023l1.19,1.19   c0.098,0.098,0.256,0.098,0.354,0c0.098-0.098,0.098-0.256,0-0.354l-1.19-1.19l2.674-2.674l0.951,0.952l-0.45,0.449   c-0.098,0.098-0.098,0.256,0,0.354c0.098,0.098,0.256,0.098,0.354,0l0.45-0.449l0.769,0.769c0.098,0.098,0.256,0.098,0.354,0   c0.098-0.098,0.098-0.256,0-0.354l-0.769-0.769l1.891-1.891l1.752,1.752c0.098,0.098,0.256,0.098,0.354,0   c0.098-0.098,0.098-0.256,0-0.354L51.29,48.3l2.361-2.36l1.317,1.316l-0.397,0.397c-0.098,0.098-0.098,0.256,0,0.354   c0.098,0.098,0.256,0.098,0.354,0l0.397-0.397l0.669,0.669C50.328,53.435,42.212,56.535,33.112,55.868z M64.022,30.447   l-1.166-1.166c-0.013-0.013-0.031-0.01-0.046-0.019l1.105-1.105C63.986,28.916,64.026,29.679,64.022,30.447z M61.725,40.588   c-0.056,0.005-0.112,0.021-0.154,0.064l-0.509,0.509l-1.63-1.63l1.787-1.787l0.984,0.985c0.09,0.09,0.188,0.092,0.303,0.021   C62.274,39.372,62.009,39.984,61.725,40.588z M58.091,46.124l-0.643-0.643l1.682-1.683l0.446,0.446   C59.112,44.892,58.618,45.52,58.091,46.124z M56.741,45.481l-1.421,1.421l-1.317-1.316l1.421-1.421L56.741,45.481z M50.583,48.3   l-1.891,1.891l-0.951-0.952l1.891-1.891L50.583,48.3z M56.349,47.931l-0.676-0.676l1.421-1.421l0.66,0.66   C57.305,46.989,56.838,47.469,56.349,47.931z M60.248,43.277c-0.121,0.187-0.256,0.366-0.382,0.55l-0.382-0.382l1.607-1.607   c0.002,0.001,0.004,0.002,0.007,0.003C60.832,42.328,60.55,42.808,60.248,43.277z"/><path d="M40.799,51.588l3.719-3.719c0.098-0.098,0.098-0.256,0-0.354s-0.256-0.098-0.354,0l-3.719,3.719l-0.763-0.763   c-0.098-0.098-0.256-0.098-0.354,0s-0.098,0.256,0,0.354l0.763,0.763l-1.995,1.995l-1.317-1.317l2.67-2.67   c0.098-0.098,0.098-0.256,0-0.354s-0.256-0.098-0.354,0l-2.67,2.67l-0.188-0.188c-0.098-0.098-0.256-0.098-0.354,0   s-0.098,0.256,0,0.354l0.188,0.188l-1.265,1.265l-1.493-1.493c-0.098-0.098-0.256-0.098-0.354,0s-0.098,0.256,0,0.354l1.493,1.493   l-1.284,1.284c-0.098,0.098-0.098,0.256,0,0.354c0.098,0.098,0.256,0.098,0.354,0l1.284-1.284l1.534,1.533   c0.098,0.098,0.256,0.098,0.354,0c0.098-0.098,0.098-0.256,0-0.354l-1.534-1.533l1.265-1.265l1.317,1.317l-0.606,0.606   c-0.098,0.098-0.098,0.256,0,0.354c0.098,0.098,0.256,0.098,0.354,0l0.606-0.606l0.941,0.941c0.098,0.098,0.256,0.098,0.354,0   c0.098-0.098,0.098-0.256,0-0.354l-0.941-0.941l1.995-1.995l2.201,2.201c0.098,0.098,0.256,0.098,0.354,0   c0.098-0.098,0.098-0.256,0-0.354L40.799,51.588z"/><path d="M14.708,12.071c0.363,0.485,0.816,0.968,1.446,1.003c0.005,0,0.01,0,0.014,0c0.132,0,0.242-0.103,0.25-0.236   c0.008-0.138-0.098-0.256-0.235-0.264c-0.423-0.023-0.772-0.401-1.063-0.788c0.919-0.625,1.939-1.167,3.055-1.627   c0.331,0.451,0.729,0.853,1.186,1.18c0.108,0.079,0.268,0.057,0.349-0.058c0.081-0.112,0.055-0.269-0.058-0.349   c-0.38-0.272-0.709-0.606-0.993-0.973c1.86-0.708,3.346-1,4.944-1.251c0.157,0.396,0.337,0.783,0.553,1.155   c0.07,0.121,0.224,0.161,0.342,0.091c0.119-0.068,0.16-0.222,0.091-0.341c-0.185-0.319-0.34-0.651-0.479-0.989   c1.132-0.16,2.271-0.269,3.412-0.346l0.434,1.693c0.032,0.127,0.161,0.214,0.304,0.18c0.134-0.034,0.214-0.171,0.18-0.305   l-0.41-1.599c1.119-0.067,2.236-0.118,3.339-0.16c0.138-0.006,0.246-0.121,0.241-0.26c-0.005-0.138-0.117-0.228-0.259-0.24   c-1.138,0.043-2.291,0.096-3.447,0.167l-0.216-0.844c-0.034-0.133-0.173-0.21-0.304-0.18c-0.134,0.034-0.214,0.171-0.18,0.305   l0.192,0.75c-1.157,0.079-2.314,0.195-3.465,0.362c-0.126-0.371-0.231-0.749-0.302-1.136c-0.025-0.137-0.155-0.228-0.292-0.201   C23.2,6.836,23.11,6.966,23.135,7.102c0.071,0.385,0.175,0.76,0.296,1.129c-1.596,0.256-3.093,0.546-5.06,1.307   c-0.219-0.355-0.406-0.73-0.527-1.132c-0.04-0.133-0.179-0.209-0.311-0.167c-0.132,0.04-0.208,0.179-0.167,0.312   c0.125,0.417,0.318,0.807,0.54,1.18c-1.127,0.469-2.158,1.022-3.09,1.658c-0.294-0.37-0.656-0.73-1.159-0.826   c-0.137-0.025-0.267,0.063-0.292,0.199c-0.026,0.136,0.063,0.267,0.199,0.292c0.333,0.064,0.603,0.327,0.84,0.621   c-1.134,0.83-2.175,1.82-3.214,3.197c-0.299-0.268-0.605-0.53-0.882-0.822c-0.095-0.1-0.253-0.105-0.354-0.01   c-0.1,0.095-0.104,0.253-0.01,0.354c0.296,0.313,0.622,0.594,0.943,0.88c-0.872,1.228-1.594,2.58-2.226,4.029   c-0.442-0.308-0.861-0.649-1.251-1.026c-0.1-0.096-0.257-0.093-0.354,0.006c-0.096,0.1-0.093,0.258,0.006,0.354   c0.434,0.42,0.901,0.798,1.396,1.135c-0.45,1.081-0.853,2.215-1.228,3.391c-0.534-0.302-1.08-0.584-1.642-0.828   c-0.13-0.054-0.274,0.004-0.329,0.13c-0.055,0.127,0.003,0.274,0.13,0.329c0.579,0.251,1.143,0.538,1.69,0.852   c-0.381,1.227-0.738,2.497-1.091,3.803c-0.036,0.134,0.042,0.271,0.176,0.307c0.136,0.036,0.272-0.045,0.307-0.176   c0.339-1.255,0.682-2.476,1.046-3.656c0.432,0.265,0.863,0.533,1.269,0.836c0.107,0.082,0.265,0.062,0.35-0.051   c0.083-0.11,0.06-0.268-0.051-0.35c-0.452-0.337-0.93-0.639-1.413-0.931c0.373-1.175,0.771-2.309,1.217-3.387   c0.345,0.212,0.697,0.411,1.066,0.583c0.13,0.06,0.275,0,0.332-0.121c0.059-0.125,0.004-0.273-0.121-0.332   c-0.373-0.174-0.729-0.377-1.076-0.593c0.617-1.425,1.322-2.753,2.17-3.957c0.502,0.418,1.028,0.807,1.581,1.157   c0.116,0.074,0.271,0.04,0.345-0.077c0.074-0.116,0.039-0.271-0.078-0.345c-0.542-0.343-1.057-0.727-1.549-1.138   C12.571,13.864,13.593,12.886,14.708,12.071z"/></g><text x="0" y="81" fill="#000000" font-size="5px" font-weight="bold" font-family="'Helvetica Neue', Helvetica, Arial-Unicode, Arial, Sans-serif">Created by Creative Stall</text><text x="0" y="86" fill="#000000" font-size="5px" font-weight="bold" font-family="'Helvetica Neue', Helvetica, Arial-Unicode, Arial, Sans-serif">from the Noun Project</text></svg>