<svg xmlns="http://www.w3.org/2000/svg" xmlns:xlink="http://www.w3.org/1999/xlink" version="1.1" x="0px" y="0px" viewBox="0 0 91 113.75" enable-background="new 0 0 91 91" xml:space="preserve"><g><path d="M33.583,32.86c-2.557,0.292-9.346,1.545-10.234,6.646c-0.361,2.089,0.906,3.768,3.395,4.491   c2.33,0.681,5.148,1.057,7.934,1.057c0.949,0,1.879-0.044,2.766-0.129c-2.766,4.946-5.061,11.108-7.209,19.364   c-0.873,3.35-1.631,8.158,1.816,11.236c1.773,1.585,3.652,2.389,5.586,2.389c3.469,0,6.916-2.699,8.867-6.914   c0.787,4.102,4.332,7.143,8.404,7.143c1.568,0,3.119-0.439,4.607-1.311c8.043-4.689,4.395-13.879,1.178-21.986   c-1.504-3.789-2.926-7.369-2.986-10.102c0.883,0.165,1.951,0.251,3.098,0.251c0,0,0,0,0.002,0c3.775,0,9.039-0.993,11.445-3.797   c1.08-1.258,1.494-2.762,1.23-4.469c-0.357-2.355-2.49-4.243-5.699-5.049c-0.779-0.195-2.836-0.643-5.289-0.659   c3.537-2.658,4.957-6.874,3.707-11.091C63.958,12.364,56.069,6.438,48.241,6.438c-0.576,0-1.156,0.033-1.719,0.096   c-3.01,0.342-7.369,1.251-11.049,3.652c-3.545,2.312-5.629,5.458-6.193,9.349C28.636,23.972,29.72,29.964,33.583,32.86z    M66.714,34.259c1.186,0.247,2.104,0.628,2.797,1.162c0.953,0.734,1.379,1.505,1.264,2.29c-0.217,1.462-2.236,2.75-3.982,3.449   C67.065,39.14,67.04,36.649,66.714,34.259z M30.997,39.054c0.057,0.283,0.111,0.563,0.158,0.836l0.045,0.264   c0.092,0.534,0.188,1.086,0.311,1.623c-0.109-0.011-0.232-0.023-0.367-0.035c-1.385-0.134-4.266-0.411-4.672-1.537   c-0.168-0.462,0.102-1.053,0.799-1.756c0.902-0.907,2.025-1.611,3.432-2.15C30.626,37.205,30.813,38.144,30.997,39.054z    M61.054,70.477c-1.172,2.85-3.348,4.484-5.967,4.484c-1.52,0-3.016-0.555-4.234-1.564c3.641-1.166,7.225-3.379,10.662-6.582   C61.632,68.234,61.479,69.435,61.054,70.477z M42.104,73.313c-1.635,1.637-3.713,2.074-6.068,1.262   c-3.115-1.074-4.27-3.59-3.521-7.686C34.944,69.981,38.579,72.416,42.104,73.313z M55.917,31.017   c-0.783,0.049-1.172,0.697-1.154,1.312c0.018,0.548,0.398,1.15,1.17,1.092c0.068-0.004,0.137-0.013,0.205-0.022   c0.006-0.001,0.01-0.001,0.016-0.002c0.037,0.086,0.096,0.147,0.174,0.183c0.723,0.327,1.537,0.479,2.568,0.479   c0.541,0,1.096-0.039,1.635-0.078c0.607-0.044,1.234-0.091,1.85-0.078l0.139,0.004c0.486,0.009,0.986,0.019,1.508,0.043   c-0.043,0.132-0.066,0.262-0.063,0.397c0.006,0.91,0.15,1.833,0.289,2.725c0.051,0.329,0.102,0.656,0.145,0.981l0.07,0.535   c0.133,1.017,0.271,2.067,0.586,3.067c-1.197,0.26-2.482,0.382-4.025,0.382c-1.027,0-2.041-0.051-3.115-0.104l-0.248-0.013   c-0.396-0.024-0.742,0.122-0.994,0.407c-0.25,0.278-0.383,0.667-0.373,1.064c-0.004,0-0.008,0-0.01,0   c-0.662,0-1.375,0.418-1.381,1.336c-0.021,4.513,1.615,8.224,3.35,12.153c0.473,1.072,0.963,2.182,1.416,3.311   c0.414,1.029,0.932,2.38,1.318,3.809c-0.443-0.084-0.875,0.053-1.217,0.385c-2.949,2.873-6.172,4.915-10.4,7.262   c-0.736-1.211-1.436-3.176-0.766-5.811c0.055-0.211,0.01-0.424-0.127-0.6c-0.148-0.191-0.387-0.311-0.621-0.311   c-0.033,0-0.064,0.002-0.096,0.008c-0.205-0.605-0.793-0.879-1.313-0.879c-0.66,0-1.375,0.421-1.385,1.344   c-0.023,1.873-0.508,3.892-1.332,5.564c-0.072-0.049-0.15-0.094-0.248-0.13c-4.225-1.521-7.117-3.128-9.984-5.552   c-0.154-0.132-0.354-0.201-0.57-0.201c0.289-1.051,0.625-2.043,0.924-2.924c0.123-0.369,0.24-0.715,0.344-1.03   c0.574-1.772,1.223-3.567,1.85-5.306c1.445-3.994,2.938-8.125,3.676-12.353c0.059-0.344-0.135-0.6-0.361-0.709   c-0.166-0.263-0.486-0.569-1.084-0.612c-0.926-0.066-1.865-0.099-2.777-0.129c-0.533-0.02-1.068-0.038-1.604-0.063   c0.027-0.682-0.018-1.372-0.059-2.041l-0.023-0.377c-0.014-0.266-0.023-0.538-0.033-0.813c-0.029-0.972-0.063-1.976-0.381-2.888   c-0.033-0.099-0.078-0.193-0.131-0.283c0.848-0.188,1.717-0.342,2.561-0.492c0.883-0.156,1.797-0.318,2.664-0.518   c0.107-0.025,0.205-0.064,0.287-0.116c0.064-0.002,0.127-0.002,0.191-0.002c0.17-0.002,0.346-0.004,0.531-0.023   c0.336-0.036,0.553-0.357,0.561-0.635c0.006-0.265-0.16-0.458-0.434-0.503c-0.293-0.049-0.57-0.119-0.842-0.19   c-0.145-0.133-0.32-0.215-0.51-0.238c-0.057-0.006-0.117-0.011-0.176-0.016c-0.064-0.005-0.127-0.01-0.162-0.011   c-5.326-1.907-7.217-7.957-6.328-12.947c1.248-7.017,7.344-9.326,11.822-10.453c1.627-0.409,3.217-0.617,4.725-0.617   c3.791,0,7.174,1.296,10.055,3.854c1.91,1.693,3.969,3.749,4.762,6.158c1.033,3.146,0.682,6.566-0.92,8.926   C60.714,29.713,58.589,30.851,55.917,31.017z"/><path d="M40.095,17.034c-0.637,0-1.174,0.231-1.551,0.671c-0.332,0.389-0.516,0.907-0.516,1.464c0,1.028,0.646,2.134,2.066,2.134   c1.355,0,2.066-1.074,2.066-2.136C42.161,18.139,41.515,17.034,40.095,17.034z"/><path d="M55.009,16.575c-0.018,0-0.033,0-0.049,0c-0.297-0.177-0.641-0.273-0.971-0.273c-0.586,0-1.07,0.284-1.363,0.801   c-0.371,0.654-0.385,1.344-0.035,1.94c0.42,0.722,1.328,1.226,2.209,1.226c0.797,0,1.426-0.407,1.729-1.117   c0.268-0.624,0.221-1.284-0.127-1.81C56.085,16.861,55.563,16.575,55.009,16.575z"/><path d="M52.388,23.054c-0.375,0-0.713,0.171-0.951,0.482c-0.918,1.194-2.449,1.907-4.094,1.907c-1.236,0-2.416-0.4-3.322-1.128   c-0.123-0.099-0.275-0.151-0.439-0.151c-0.27,0-0.527,0.144-0.643,0.359c-0.102,0.19-0.082,0.408,0.055,0.612   c1.068,1.597,2.926,2.55,4.975,2.55c2.258,0,4.322-1.152,5.389-3.008c0.211-0.369,0.227-0.748,0.041-1.068   C53.202,23.271,52.806,23.054,52.388,23.054z"/><path d="M47.429,35.146v0.129c-0.012,0-0.023-0.003-0.037-0.003c-0.203,0.004-0.406,0.006-0.605,0.01   c-2.742,0.037-2.746,4.219,0,4.258c0.199,0.002,0.402,0.005,0.605,0.009c0.014,0,0.023-0.003,0.035-0.003v0.128   c0.666,0,1.227-0.248,1.619-0.714c0.348-0.411,0.537-0.963,0.537-1.553C49.581,36.318,48.907,35.146,47.429,35.146z"/><path d="M47.392,46.974c-0.879,0-1.338,0.696-1.338,1.384c0,0.357,0.117,0.693,0.332,0.943c0.246,0.287,0.592,0.437,1.006,0.437   c0.879,0,1.34-0.696,1.34-1.384c0-0.357-0.119-0.693-0.334-0.943C48.153,47.123,47.804,46.974,47.392,46.974z"/><path d="M47.392,55.486c-0.879,0-1.338,0.695-1.338,1.383c0,0.358,0.117,0.693,0.332,0.944c0.246,0.286,0.592,0.437,1.006,0.437   c0.879,0,1.34-0.697,1.34-1.384c0-0.358-0.119-0.693-0.334-0.944C48.153,55.637,47.804,55.486,47.392,55.486z"/><path d="M24.825,25.333c0.146,0.134,0.32,0.205,0.496,0.205c0.273,0,0.527-0.168,0.648-0.428c0.123-0.264,0.078-0.562-0.117-0.797   c-2.598-3.097-2.807-7.161-0.547-10.608c0.221-0.333,0.246-0.691,0.076-1.006c-0.191-0.354-0.607-0.591-1.037-0.591   c-0.369,0-0.693,0.17-0.914,0.479C20.653,16.492,21.265,22.089,24.825,25.333z"/><path d="M17.659,21.776c0.297,0,0.592-0.167,0.752-0.426c0.156-0.252,0.164-0.558,0.021-0.841c-1.885-3.782-0.725-8.298,2.76-10.74   c0.557-0.391,0.611-0.989,0.477-1.417c-0.166-0.521-0.596-0.872-1.074-0.872c-0.215,0-0.432,0.07-0.641,0.208   c-4.422,2.922-5.793,9.186-2.992,13.677C17.128,21.629,17.374,21.776,17.659,21.776z"/><path d="M68.794,74.803c-0.113-0.561-0.662-0.816-1.125-0.816c-0.467,0-0.971,0.256-1.049,0.824l-0.025,0.18   c-0.242,1.746-0.449,3.253-1.654,4.672c-1.205,1.412-2.904,2.262-4.785,2.393c-0.578,0.041-0.838,0.486-0.834,0.883   c0.004,0.389,0.264,0.823,0.836,0.855c0.117,0.007,0.236,0.01,0.355,0.01c2.383,0,5.006-1.326,6.684-3.379   C68.612,78.695,69.179,76.697,68.794,74.803z"/><path d="M72.718,76.695c-1.076,3.074-2.479,5.145-4.543,6.719c-0.328,0.249-0.455,0.658-0.324,1.041   c0.119,0.355,0.416,0.584,0.756,0.584c0.152,0,0.307-0.045,0.459-0.133c3.025-1.754,5.227-4.592,5.887-7.594   c0.082-0.371,0.012-0.723-0.203-0.99c-0.219-0.273-0.568-0.436-0.932-0.436C73.306,75.887,72.896,76.189,72.718,76.695z"/></g><text x="0" y="106" fill="#000000" font-size="5px" font-weight="bold" font-family="'Helvetica Neue', Helvetica, Arial-Unicode, Arial, Sans-serif">Created by BomSymbols</text><text x="0" y="111" fill="#000000" font-size="5px" font-weight="bold" font-family="'Helvetica Neue', Helvetica, Arial-Unicode, Arial, Sans-serif">from the Noun Project</text></svg>