<svg xmlns="http://www.w3.org/2000/svg" xmlns:xlink="http://www.w3.org/1999/xlink" version="1.1" x="0px" y="0px" viewBox="0 0 100 125" style="enable-background:new 0 0 100 100;" xml:space="preserve"><path d="M58,18c-2.8,0-5.3,1.1-7.3,2.8C49.4,19.7,47.8,19,46,19c-3.9,0-7,3.1-7,7c0,0.6,0.1,1.2,0.2,1.8  C36.7,29.6,35,32.6,35,36c0,0,0,0.1,0,0.1c-2.4,1.4-4,4.1-4,6.9c0,4.4,3.6,8,8,8c0.1,0,0.2,0,0.4,0c0.1,0.3,0.2,0.7,0.3,1H34  c-0.6,0-1,0.4-1,1v8c0,0.6,0.4,1,1,1h2v4v5v5v5c0,0.6,0.4,1,1,1h6h10h10c0.6,0,1-0.4,1-1v-5v-5v-5v-4h2c0.6,0,1-0.4,1-1v-8  c0-0.6-0.4-1-1-1h-1.6c0.4-1.3,0.6-2.6,0.6-4c0-0.4,0-0.7,0-1.1c2.5-1.4,4-4.1,4-6.9c0-1.9-0.6-3.6-1.8-5c1.1-1.7,1.8-3.8,1.8-6  C69,22.9,64.1,18,58,18z M41,26c0-2.8,2.2-5,5-5c1.2,0,2.4,0.5,3.3,1.3c-0.9,1.2-1.6,2.5-2,4C46.6,26.1,45.8,26,45,26  c-1.4,0-2.7,0.3-3.9,0.8C41,26.5,41,26.3,41,26z M39,49c-3.3,0-6-2.7-6-6c0-1.8,0.9-3.6,2.3-4.7c0.6,2.5,2.1,4.6,4.2,6.1  C39.2,45.6,39,46.8,39,48C39,48.3,39,48.7,39,49C39,49,39,49,39,49z M56,62v3h-3h-5v-3H56z M53,75h-5v-3h5h3v3H53z M43,75h-5v-3h5h3  v3H43z M47,67h5v3h-5h-3v-3H47z M42,70h-4v-3h4V70z M58,72h4v3h-4V72z M62,70h-5h-3v-3h3h5V70z M46,65h-3h-5v-3h8V65z M38,77h4v3h-4  V77z M44,77h3h5v3h-8V77z M62,80h-8v-3h3h5V80z M62,65h-4v-3h4V65z M65,54v6h-2h-6H47H37h-2v-6H65z M41.8,52c0-0.1-0.1-0.2-0.1-0.3  C41.2,50.5,41,49.3,41,48c0-1.3,0.2-2.5,0.7-3.7c0.2-0.5,0-1-0.5-1.2c-2.6-1.4-4.2-4.1-4.2-7c0-4.4,3.6-8,8-8c0.9,0,1.9,0.2,2.8,0.5  c0.3,0.1,0.6,0.1,0.9-0.1s0.4-0.4,0.5-0.7c0.6-4.4,4.5-7.7,8.9-7.7c5,0,9,4,9,9c0,4.4-3.1,8.1-7.4,8.9c-0.4,0.1-0.7,0.3-0.8,0.7  c-0.1,0.4,0,0.8,0.3,1c2.5,2.1,3.9,5.2,3.9,8.4c0,1.3-0.2,2.5-0.6,3.7c0,0.1-0.1,0.2-0.1,0.3H41.8z M67,40c0,1.9-0.9,3.7-2.4,4.8  c-0.5-2-1.5-3.9-2.9-5.4c1.6-0.6,3.1-1.5,4.2-2.7C66.6,37.6,67,38.8,67,40z"/><text x="0" y="115" fill="#000000" font-size="5px" font-weight="bold" font-family="'Helvetica Neue', Helvetica, Arial-Unicode, Arial, Sans-serif">Created by André Luiz Gollo</text><text x="0" y="120" fill="#000000" font-size="5px" font-weight="bold" font-family="'Helvetica Neue', Helvetica, Arial-Unicode, Arial, Sans-serif">from the Noun Project</text></svg>